<?xml version="1.0" encoding="UTF-8" standalone="no"?>
<!DOCTYPE svg PUBLIC "-//W3C//DTD SVG 1.1//EN"
 "http://www.w3.org/Graphics/SVG/1.1/DTD/svg11.dtd">
<!-- Generated by graphviz version 2.43.0 (0)
 -->
<!-- Title: fx_graph Pages: 1 -->
<svg width="480pt" height="723pt"
 viewBox="0.00 0.00 479.50 723.00" xmlns="http://www.w3.org/2000/svg" xmlns:xlink="http://www.w3.org/1999/xlink">
<g id="graph0" class="graph" transform="scale(1 1) rotate(0) translate(4 719)">
<title>fx_graph</title>
<polygon fill="white" stroke="transparent" points="-4,4 -4,-719 475.5,-719 475.5,4 -4,4"/>
<!-- primals_1 -->
<g id="node1" class="node">
<title>primals_1</title>
<path fill="AliceBlue" stroke="black" d="M83.5,-622.5C83.5,-622.5 228.5,-622.5 228.5,-622.5 234.5,-622.5 240.5,-628.5 240.5,-634.5 240.5,-634.5 240.5,-702.5 240.5,-702.5 240.5,-708.5 234.5,-714.5 228.5,-714.5 228.5,-714.5 83.5,-714.5 83.5,-714.5 77.5,-714.5 71.5,-708.5 71.5,-702.5 71.5,-702.5 71.5,-634.5 71.5,-634.5 71.5,-628.5 77.5,-622.5 83.5,-622.5"/>
<text text-anchor="middle" x="156" y="-699.3" font-family="Times,serif" font-size="14.00" fill="#000000">name=%primals_1</text>
<polyline fill="none" stroke="black" points="71.5,-691.5 240.5,-691.5 "/>
<text text-anchor="middle" x="156" y="-676.3" font-family="Times,serif" font-size="14.00" fill="#000000">op_code=placeholder</text>
<polyline fill="none" stroke="black" points="71.5,-668.5 240.5,-668.5 "/>
<text text-anchor="middle" x="156" y="-653.3" font-family="Times,serif" font-size="14.00" fill="#000000">target=primals_1</text>
<polyline fill="none" stroke="black" points="71.5,-645.5 240.5,-645.5 "/>
<text text-anchor="middle" x="156" y="-630.3" font-family="Times,serif" font-size="14.00" fill="#000000">num_users=1</text>
</g>
<!-- pow_2 -->
<g id="node3" class="node">
<title>pow_2</title>
<path fill="#fff0f5" stroke="black" d="M12,-440.5C12,-440.5 300,-440.5 300,-440.5 306,-440.5 312,-446.5 312,-452.5 312,-452.5 312,-573.5 312,-573.5 312,-579.5 306,-585.5 300,-585.5 300,-585.5 12,-585.5 12,-585.5 6,-585.5 0,-579.5 0,-573.5 0,-573.5 0,-452.5 0,-452.5 0,-446.5 6,-440.5 12,-440.5"/>
<text text-anchor="middle" x="156" y="-570.3" font-family="Times,serif" font-size="14.00" fill="#000000">name=%pow_2</text>
<polyline fill="none" stroke="black" points="0,-562.5 312,-562.5 "/>
<text text-anchor="middle" x="156" y="-547.3" font-family="Times,serif" font-size="14.00" fill="#000000">op_code=call_function</text>
<polyline fill="none" stroke="black" points="0,-539.5 312,-539.5 "/>
<text text-anchor="middle" x="156" y="-524.3" font-family="Times,serif" font-size="14.00" fill="#000000">target=torch.ops.aten.pow.Tensor_Scalar</text>
<polyline fill="none" stroke="black" points="0,-516.5 312,-516.5 "/>
<text text-anchor="start" x="8" y="-501.3" font-family="Times,serif" font-size="14.00" fill="#000000">args=(</text>
<text text-anchor="middle" x="156" y="-486.3" font-family="Times,serif" font-size="14.00" fill="#000000">1.0,</text>
<text text-anchor="start" x="8" y="-471.3" font-family="Times,serif" font-size="14.00" fill="#000000">)</text>
<polyline fill="none" stroke="black" points="0,-463.5 312,-463.5 "/>
<text text-anchor="middle" x="156" y="-448.3" font-family="Times,serif" font-size="14.00" fill="#000000">num_users=1</text>
</g>
<!-- primals_1&#45;&gt;pow_2 -->
<g id="edge1" class="edge">
<title>primals_1&#45;&gt;pow_2</title>
<path fill="none" stroke="black" d="M156,-622.28C156,-613.92 156,-604.97 156,-595.91"/>
<polygon fill="black" stroke="black" points="159.5,-595.68 156,-585.68 152.5,-595.68 159.5,-595.68"/>
</g>
<!-- tangents_1 -->
<g id="node2" class="node">
<title>tangents_1</title>
<path fill="AliceBlue" stroke="black" d="M314.5,-285C314.5,-285 459.5,-285 459.5,-285 465.5,-285 471.5,-291 471.5,-297 471.5,-297 471.5,-365 471.5,-365 471.5,-371 465.5,-377 459.5,-377 459.5,-377 314.5,-377 314.5,-377 308.5,-377 302.5,-371 302.5,-365 302.5,-365 302.5,-297 302.5,-297 302.5,-291 308.5,-285 314.5,-285"/>
<text text-anchor="middle" x="387" y="-361.8" font-family="Times,serif" font-size="14.00" fill="#000000">name=%tangents_1</text>
<polyline fill="none" stroke="black" points="302.5,-354 471.5,-354 "/>
<text text-anchor="middle" x="387" y="-338.8" font-family="Times,serif" font-size="14.00" fill="#000000">op_code=placeholder</text>
<polyline fill="none" stroke="black" points="302.5,-331 471.5,-331 "/>
<text text-anchor="middle" x="387" y="-315.8" font-family="Times,serif" font-size="14.00" fill="#000000">target=tangents_1</text>
<polyline fill="none" stroke="black" points="302.5,-308 471.5,-308 "/>
<text text-anchor="middle" x="387" y="-292.8" font-family="Times,serif" font-size="14.00" fill="#000000">num_users=1</text>
</g>
<!-- mul_1 -->
<g id="node5" class="node">
<title>mul_1</title>
<path fill="#ffe7ba" stroke="black" d="M153,-129.5C153,-129.5 389,-129.5 389,-129.5 395,-129.5 401,-135.5 401,-141.5 401,-141.5 401,-209.5 401,-209.5 401,-215.5 395,-221.5 389,-221.5 389,-221.5 153,-221.5 153,-221.5 147,-221.5 141,-215.5 141,-209.5 141,-209.5 141,-141.5 141,-141.5 141,-135.5 147,-129.5 153,-129.5"/>
<text text-anchor="middle" x="271" y="-206.3" font-family="Times,serif" font-size="14.00" fill="#000000">name=%mul_1</text>
<polyline fill="none" stroke="black" points="141,-198.5 401,-198.5 "/>
<text text-anchor="middle" x="271" y="-183.3" font-family="Times,serif" font-size="14.00" fill="#000000">op_code=call_function</text>
<polyline fill="none" stroke="black" points="141,-175.5 401,-175.5 "/>
<text text-anchor="middle" x="271" y="-160.3" font-family="Times,serif" font-size="14.00" fill="#000000">target=torch.ops.aten.mul.Tensor</text>
<polyline fill="none" stroke="black" points="141,-152.5 401,-152.5 "/>
<text text-anchor="middle" x="271" y="-137.3" font-family="Times,serif" font-size="14.00" fill="#000000">num_users=1</text>
</g>
<!-- tangents_1&#45;&gt;mul_1 -->
<g id="edge2" class="edge">
<title>tangents_1&#45;&gt;mul_1</title>
<path fill="none" stroke="black" d="M352.82,-284.78C339.78,-267.52 324.8,-247.69 311.25,-229.76"/>
<polygon fill="black" stroke="black" points="313.95,-227.53 305.13,-221.67 308.37,-231.75 313.95,-227.53"/>
</g>
<!-- mul -->
<g id="node4" class="node">
<title>mul</title>
<path fill="#ffe1ff" stroke="black" d="M39.5,-258.5C39.5,-258.5 272.5,-258.5 272.5,-258.5 278.5,-258.5 284.5,-264.5 284.5,-270.5 284.5,-270.5 284.5,-391.5 284.5,-391.5 284.5,-397.5 278.5,-403.5 272.5,-403.5 272.5,-403.5 39.5,-403.5 39.5,-403.5 33.5,-403.5 27.5,-397.5 27.5,-391.5 27.5,-391.5 27.5,-270.5 27.5,-270.5 27.5,-264.5 33.5,-258.5 39.5,-258.5"/>
<text text-anchor="middle" x="156" y="-388.3" font-family="Times,serif" font-size="14.00" fill="#000000">name=%mul</text>
<polyline fill="none" stroke="black" points="27.5,-380.5 284.5,-380.5 "/>
<text text-anchor="middle" x="156" y="-365.3" font-family="Times,serif" font-size="14.00" fill="#000000">op_code=call_function</text>
<polyline fill="none" stroke="black" points="27.5,-357.5 284.5,-357.5 "/>
<text text-anchor="middle" x="156" y="-342.3" font-family="Times,serif" font-size="14.00" fill="#000000">target=torch.ops.aten.mul.Scalar</text>
<polyline fill="none" stroke="black" points="27.5,-334.5 284.5,-334.5 "/>
<text text-anchor="start" x="35.5" y="-319.3" font-family="Times,serif" font-size="14.00" fill="#000000">args=(</text>
<text text-anchor="middle" x="156" y="-304.3" font-family="Times,serif" font-size="14.00" fill="#000000">2.0,</text>
<text text-anchor="start" x="35.5" y="-289.3" font-family="Times,serif" font-size="14.00" fill="#000000">)</text>
<polyline fill="none" stroke="black" points="27.5,-281.5 284.5,-281.5 "/>
<text text-anchor="middle" x="156" y="-266.3" font-family="Times,serif" font-size="14.00" fill="#000000">num_users=1</text>
</g>
<!-- pow_2&#45;&gt;mul -->
<g id="edge3" class="edge">
<title>pow_2&#45;&gt;mul</title>
<path fill="none" stroke="black" d="M156,-440.34C156,-431.67 156,-422.77 156,-413.97"/>
<polygon fill="black" stroke="black" points="159.5,-413.71 156,-403.71 152.5,-413.71 159.5,-413.71"/>
</g>
<!-- mul&#45;&gt;mul_1 -->
<g id="edge4" class="edge">
<title>mul&#45;&gt;mul_1</title>
<path fill="none" stroke="black" d="M209.8,-258.19C216.96,-248.64 224.2,-238.97 231.06,-229.81"/>
<polygon fill="black" stroke="black" points="234.06,-231.65 237.25,-221.54 228.46,-227.45 234.06,-231.65"/>
</g>
<!-- output -->
<g id="node6" class="node">
<title>output</title>
<path fill="PowderBlue" stroke="black" d="M216.5,-0.5C216.5,-0.5 325.5,-0.5 325.5,-0.5 331.5,-0.5 337.5,-6.5 337.5,-12.5 337.5,-12.5 337.5,-80.5 337.5,-80.5 337.5,-86.5 331.5,-92.5 325.5,-92.5 325.5,-92.5 216.5,-92.5 216.5,-92.5 210.5,-92.5 204.5,-86.5 204.5,-80.5 204.5,-80.5 204.5,-12.5 204.5,-12.5 204.5,-6.5 210.5,-0.5 216.5,-0.5"/>
<text text-anchor="middle" x="271" y="-77.3" font-family="Times,serif" font-size="14.00" fill="#000000">name=%output</text>
<polyline fill="none" stroke="black" points="204.5,-69.5 337.5,-69.5 "/>
<text text-anchor="middle" x="271" y="-54.3" font-family="Times,serif" font-size="14.00" fill="#000000">op_code=output</text>
<polyline fill="none" stroke="black" points="204.5,-46.5 337.5,-46.5 "/>
<text text-anchor="middle" x="271" y="-31.3" font-family="Times,serif" font-size="14.00" fill="#000000">target=output</text>
<polyline fill="none" stroke="black" points="204.5,-23.5 337.5,-23.5 "/>
<text text-anchor="middle" x="271" y="-8.3" font-family="Times,serif" font-size="14.00" fill="#000000">num_users=0</text>
</g>
<!-- mul_1&#45;&gt;output -->
<g id="edge5" class="edge">
<title>mul_1&#45;&gt;output</title>
<path fill="none" stroke="black" d="M271,-129.37C271,-120.86 271,-111.87 271,-103.09"/>
<polygon fill="black" stroke="black" points="274.5,-102.92 271,-92.92 267.5,-102.92 274.5,-102.92"/>
</g>
</g>
</svg>
