<?xml version="1.0" encoding="UTF-8" standalone="no"?>
<!DOCTYPE svg PUBLIC "-//W3C//DTD SVG 1.1//EN"
 "http://www.w3.org/Graphics/SVG/1.1/DTD/svg11.dtd">
<!-- Generated by graphviz version 2.43.0 (0)
 -->
<!-- Title: fx_graph Pages: 1 -->
<svg width="346pt" height="412pt"
 viewBox="0.00 0.00 346.38 412.00" xmlns="http://www.w3.org/2000/svg" xmlns:xlink="http://www.w3.org/1999/xlink">
<g id="graph0" class="graph" transform="scale(1 1) rotate(0) translate(4 408)">
<title>fx_graph</title>
<polygon fill="white" stroke="transparent" points="-4,4 -4,-408 342.38,-408 342.38,4 -4,4"/>
<!-- primals_1 -->
<g id="node1" class="node">
<title>primals_1</title>
<path fill="AliceBlue" stroke="black" d="M175.5,-311.5C175.5,-311.5 320.5,-311.5 320.5,-311.5 326.5,-311.5 332.5,-317.5 332.5,-323.5 332.5,-323.5 332.5,-391.5 332.5,-391.5 332.5,-397.5 326.5,-403.5 320.5,-403.5 320.5,-403.5 175.5,-403.5 175.5,-403.5 169.5,-403.5 163.5,-397.5 163.5,-391.5 163.5,-391.5 163.5,-323.5 163.5,-323.5 163.5,-317.5 169.5,-311.5 175.5,-311.5"/>
<text text-anchor="middle" x="248" y="-388.3" font-family="Times,serif" font-size="14.00" fill="#000000">name=%primals_1</text>
<polyline fill="none" stroke="black" points="163.5,-380.5 332.5,-380.5 "/>
<text text-anchor="middle" x="248" y="-365.3" font-family="Times,serif" font-size="14.00" fill="#000000">op_code=placeholder</text>
<polyline fill="none" stroke="black" points="163.5,-357.5 332.5,-357.5 "/>
<text text-anchor="middle" x="248" y="-342.3" font-family="Times,serif" font-size="14.00" fill="#000000">target=primals_1</text>
<polyline fill="none" stroke="black" points="163.5,-334.5 332.5,-334.5 "/>
<text text-anchor="middle" x="248" y="-319.3" font-family="Times,serif" font-size="14.00" fill="#000000">num_users=2</text>
</g>
<!-- pow_1 -->
<g id="node2" class="node">
<title>pow_1</title>
<path fill="#fff0f5" stroke="black" d="M12,-129.5C12,-129.5 300,-129.5 300,-129.5 306,-129.5 312,-135.5 312,-141.5 312,-141.5 312,-262.5 312,-262.5 312,-268.5 306,-274.5 300,-274.5 300,-274.5 12,-274.5 12,-274.5 6,-274.5 0,-268.5 0,-262.5 0,-262.5 0,-141.5 0,-141.5 0,-135.5 6,-129.5 12,-129.5"/>
<text text-anchor="middle" x="156" y="-259.3" font-family="Times,serif" font-size="14.00" fill="#000000">name=%pow_1</text>
<polyline fill="none" stroke="black" points="0,-251.5 312,-251.5 "/>
<text text-anchor="middle" x="156" y="-236.3" font-family="Times,serif" font-size="14.00" fill="#000000">op_code=call_function</text>
<polyline fill="none" stroke="black" points="0,-228.5 312,-228.5 "/>
<text text-anchor="middle" x="156" y="-213.3" font-family="Times,serif" font-size="14.00" fill="#000000">target=torch.ops.aten.pow.Tensor_Scalar</text>
<polyline fill="none" stroke="black" points="0,-205.5 312,-205.5 "/>
<text text-anchor="start" x="8" y="-190.3" font-family="Times,serif" font-size="14.00" fill="#000000">args=(</text>
<text text-anchor="middle" x="156" y="-175.3" font-family="Times,serif" font-size="14.00" fill="#000000">2,</text>
<text text-anchor="start" x="8" y="-160.3" font-family="Times,serif" font-size="14.00" fill="#000000">)</text>
<polyline fill="none" stroke="black" points="0,-152.5 312,-152.5 "/>
<text text-anchor="middle" x="156" y="-137.3" font-family="Times,serif" font-size="14.00" fill="#000000">num_users=1</text>
</g>
<!-- primals_1&#45;&gt;pow_1 -->
<g id="edge1" class="edge">
<title>primals_1&#45;&gt;pow_1</title>
<path fill="none" stroke="black" d="M220.89,-311.28C215.62,-302.47 209.94,-293 204.22,-283.45"/>
<polygon fill="black" stroke="black" points="207.1,-281.46 198.96,-274.68 201.1,-285.06 207.1,-281.46"/>
</g>
<!-- output -->
<g id="node3" class="node">
<title>output</title>
<path fill="PowderBlue" stroke="black" d="M193.5,-0.5C193.5,-0.5 302.5,-0.5 302.5,-0.5 308.5,-0.5 314.5,-6.5 314.5,-12.5 314.5,-12.5 314.5,-80.5 314.5,-80.5 314.5,-86.5 308.5,-92.5 302.5,-92.5 302.5,-92.5 193.5,-92.5 193.5,-92.5 187.5,-92.5 181.5,-86.5 181.5,-80.5 181.5,-80.5 181.5,-12.5 181.5,-12.5 181.5,-6.5 187.5,-0.5 193.5,-0.5"/>
<text text-anchor="middle" x="248" y="-77.3" font-family="Times,serif" font-size="14.00" fill="#000000">name=%output</text>
<polyline fill="none" stroke="black" points="181.5,-69.5 314.5,-69.5 "/>
<text text-anchor="middle" x="248" y="-54.3" font-family="Times,serif" font-size="14.00" fill="#000000">op_code=output</text>
<polyline fill="none" stroke="black" points="181.5,-46.5 314.5,-46.5 "/>
<text text-anchor="middle" x="248" y="-31.3" font-family="Times,serif" font-size="14.00" fill="#000000">target=output</text>
<polyline fill="none" stroke="black" points="181.5,-23.5 314.5,-23.5 "/>
<text text-anchor="middle" x="248" y="-8.3" font-family="Times,serif" font-size="14.00" fill="#000000">num_users=0</text>
</g>
<!-- primals_1&#45;&gt;output -->
<g id="edge2" class="edge">
<title>primals_1&#45;&gt;output</title>
<path fill="none" stroke="black" d="M298.62,-311.4C307.76,-300.48 315.98,-288.13 321,-275 344.18,-214.39 344.18,-189.61 321,-129 317.16,-118.95 311.44,-109.35 304.86,-100.51"/>
<polygon fill="black" stroke="black" points="307.56,-98.27 298.62,-92.6 302.07,-102.61 307.56,-98.27"/>
</g>
<!-- pow_1&#45;&gt;output -->
<g id="edge3" class="edge">
<title>pow_1&#45;&gt;output</title>
<path fill="none" stroke="black" d="M199.04,-129.19C204.65,-119.83 210.32,-110.37 215.71,-101.37"/>
<polygon fill="black" stroke="black" points="218.86,-102.92 221,-92.54 212.86,-99.32 218.86,-102.92"/>
</g>
</g>
</svg>
