<?xml version="1.0" encoding="UTF-8" standalone="no"?>
<!DOCTYPE svg PUBLIC "-//W3C//DTD SVG 1.1//EN"
 "http://www.w3.org/Graphics/SVG/1.1/DTD/svg11.dtd">
<!-- Generated by graphviz version 2.43.0 (0)
 -->
<!-- Title: fn Pages: 1 -->
<svg width="378pt" height="723pt"
 viewBox="0.00 0.00 378.00 723.00" xmlns="http://www.w3.org/2000/svg" xmlns:xlink="http://www.w3.org/1999/xlink">
<g id="graph0" class="graph" transform="scale(1 1) rotate(0) translate(4 719)">
<title>fn</title>
<polygon fill="white" stroke="transparent" points="-4,4 -4,-719 374,-719 374,4 -4,4"/>
<!-- x -->
<g id="node1" class="node">
<title>x</title>
<path fill="AliceBlue" stroke="black" d="M112.5,-622.5C112.5,-622.5 257.5,-622.5 257.5,-622.5 263.5,-622.5 269.5,-628.5 269.5,-634.5 269.5,-634.5 269.5,-702.5 269.5,-702.5 269.5,-708.5 263.5,-714.5 257.5,-714.5 257.5,-714.5 112.5,-714.5 112.5,-714.5 106.5,-714.5 100.5,-708.5 100.5,-702.5 100.5,-702.5 100.5,-634.5 100.5,-634.5 100.5,-628.5 106.5,-622.5 112.5,-622.5"/>
<text text-anchor="middle" x="185" y="-699.3" font-family="Times,serif" font-size="14.00" fill="#000000">name=%x</text>
<polyline fill="none" stroke="black" points="100.5,-691.5 269.5,-691.5 "/>
<text text-anchor="middle" x="185" y="-676.3" font-family="Times,serif" font-size="14.00" fill="#000000">op_code=placeholder</text>
<polyline fill="none" stroke="black" points="100.5,-668.5 269.5,-668.5 "/>
<text text-anchor="middle" x="185" y="-653.3" font-family="Times,serif" font-size="14.00" fill="#000000">target=x</text>
<polyline fill="none" stroke="black" points="100.5,-645.5 269.5,-645.5 "/>
<text text-anchor="middle" x="185" y="-630.3" font-family="Times,serif" font-size="14.00" fill="#000000">num_users=2</text>
</g>
<!-- pow_1 -->
<g id="node2" class="node">
<title>pow_1</title>
<path fill="#ffe4e1" stroke="black" d="M12,-440.5C12,-440.5 164,-440.5 164,-440.5 170,-440.5 176,-446.5 176,-452.5 176,-452.5 176,-573.5 176,-573.5 176,-579.5 170,-585.5 164,-585.5 164,-585.5 12,-585.5 12,-585.5 6,-585.5 0,-579.5 0,-573.5 0,-573.5 0,-452.5 0,-452.5 0,-446.5 6,-440.5 12,-440.5"/>
<text text-anchor="middle" x="88" y="-570.3" font-family="Times,serif" font-size="14.00" fill="#000000">name=%pow_1</text>
<polyline fill="none" stroke="black" points="0,-562.5 176,-562.5 "/>
<text text-anchor="middle" x="88" y="-547.3" font-family="Times,serif" font-size="14.00" fill="#000000">op_code=call_function</text>
<polyline fill="none" stroke="black" points="0,-539.5 176,-539.5 "/>
<text text-anchor="middle" x="88" y="-524.3" font-family="Times,serif" font-size="14.00" fill="#000000">target=_operator.pow</text>
<polyline fill="none" stroke="black" points="0,-516.5 176,-516.5 "/>
<text text-anchor="start" x="8" y="-501.3" font-family="Times,serif" font-size="14.00" fill="#000000">args=(</text>
<text text-anchor="middle" x="88" y="-486.3" font-family="Times,serif" font-size="14.00" fill="#000000">2,</text>
<text text-anchor="start" x="8" y="-471.3" font-family="Times,serif" font-size="14.00" fill="#000000">)</text>
<polyline fill="none" stroke="black" points="0,-463.5 176,-463.5 "/>
<text text-anchor="middle" x="88" y="-448.3" font-family="Times,serif" font-size="14.00" fill="#000000">num_users=1</text>
</g>
<!-- x&#45;&gt;pow_1 -->
<g id="edge1" class="edge">
<title>x&#45;&gt;pow_1</title>
<path fill="none" stroke="black" d="M156.42,-622.28C150.8,-613.38 144.75,-603.81 138.66,-594.16"/>
<polygon fill="black" stroke="black" points="141.6,-592.26 133.3,-585.68 135.68,-596 141.6,-592.26"/>
</g>
<!-- mul -->
<g id="node3" class="node">
<title>mul</title>
<path fill="#eed5d2" stroke="black" d="M206,-440.5C206,-440.5 358,-440.5 358,-440.5 364,-440.5 370,-446.5 370,-452.5 370,-452.5 370,-573.5 370,-573.5 370,-579.5 364,-585.5 358,-585.5 358,-585.5 206,-585.5 206,-585.5 200,-585.5 194,-579.5 194,-573.5 194,-573.5 194,-452.5 194,-452.5 194,-446.5 200,-440.5 206,-440.5"/>
<text text-anchor="middle" x="282" y="-570.3" font-family="Times,serif" font-size="14.00" fill="#000000">name=%mul</text>
<polyline fill="none" stroke="black" points="194,-562.5 370,-562.5 "/>
<text text-anchor="middle" x="282" y="-547.3" font-family="Times,serif" font-size="14.00" fill="#000000">op_code=call_function</text>
<polyline fill="none" stroke="black" points="194,-539.5 370,-539.5 "/>
<text text-anchor="middle" x="282" y="-524.3" font-family="Times,serif" font-size="14.00" fill="#000000">target=_operator.mul</text>
<polyline fill="none" stroke="black" points="194,-516.5 370,-516.5 "/>
<text text-anchor="start" x="202" y="-501.3" font-family="Times,serif" font-size="14.00" fill="#000000">args=(</text>
<text text-anchor="middle" x="282" y="-486.3" font-family="Times,serif" font-size="14.00" fill="#000000">2,</text>
<text text-anchor="start" x="202" y="-471.3" font-family="Times,serif" font-size="14.00" fill="#000000">)</text>
<polyline fill="none" stroke="black" points="194,-463.5 370,-463.5 "/>
<text text-anchor="middle" x="282" y="-448.3" font-family="Times,serif" font-size="14.00" fill="#000000">num_users=1</text>
</g>
<!-- x&#45;&gt;mul -->
<g id="edge2" class="edge">
<title>x&#45;&gt;mul</title>
<path fill="none" stroke="black" d="M213.58,-622.28C219.2,-613.38 225.25,-603.81 231.34,-594.16"/>
<polygon fill="black" stroke="black" points="234.32,-596 236.7,-585.68 228.4,-592.26 234.32,-596"/>
</g>
<!-- add -->
<g id="node4" class="node">
<title>add</title>
<path fill="#ffe7ba" stroke="black" d="M109,-311.5C109,-311.5 261,-311.5 261,-311.5 267,-311.5 273,-317.5 273,-323.5 273,-323.5 273,-391.5 273,-391.5 273,-397.5 267,-403.5 261,-403.5 261,-403.5 109,-403.5 109,-403.5 103,-403.5 97,-397.5 97,-391.5 97,-391.5 97,-323.5 97,-323.5 97,-317.5 103,-311.5 109,-311.5"/>
<text text-anchor="middle" x="185" y="-388.3" font-family="Times,serif" font-size="14.00" fill="#000000">name=%add</text>
<polyline fill="none" stroke="black" points="97,-380.5 273,-380.5 "/>
<text text-anchor="middle" x="185" y="-365.3" font-family="Times,serif" font-size="14.00" fill="#000000">op_code=call_function</text>
<polyline fill="none" stroke="black" points="97,-357.5 273,-357.5 "/>
<text text-anchor="middle" x="185" y="-342.3" font-family="Times,serif" font-size="14.00" fill="#000000">target=_operator.add</text>
<polyline fill="none" stroke="black" points="97,-334.5 273,-334.5 "/>
<text text-anchor="middle" x="185" y="-319.3" font-family="Times,serif" font-size="14.00" fill="#000000">num_users=1</text>
</g>
<!-- pow_1&#45;&gt;add -->
<g id="edge3" class="edge">
<title>pow_1&#45;&gt;add</title>
<path fill="none" stroke="black" d="M133.38,-440.19C139.35,-430.73 145.4,-421.17 151.14,-412.09"/>
<polygon fill="black" stroke="black" points="154.15,-413.87 156.54,-403.54 148.24,-410.13 154.15,-413.87"/>
</g>
<!-- mul&#45;&gt;add -->
<g id="edge4" class="edge">
<title>mul&#45;&gt;add</title>
<path fill="none" stroke="black" d="M236.62,-440.19C230.65,-430.73 224.6,-421.17 218.86,-412.09"/>
<polygon fill="black" stroke="black" points="221.76,-410.13 213.46,-403.54 215.85,-413.87 221.76,-410.13"/>
</g>
<!-- add_1 -->
<g id="node5" class="node">
<title>add_1</title>
<path fill="#ffe7ba" stroke="black" d="M109,-129.5C109,-129.5 261,-129.5 261,-129.5 267,-129.5 273,-135.5 273,-141.5 273,-141.5 273,-262.5 273,-262.5 273,-268.5 267,-274.5 261,-274.5 261,-274.5 109,-274.5 109,-274.5 103,-274.5 97,-268.5 97,-262.5 97,-262.5 97,-141.5 97,-141.5 97,-135.5 103,-129.5 109,-129.5"/>
<text text-anchor="middle" x="185" y="-259.3" font-family="Times,serif" font-size="14.00" fill="#000000">name=%add_1</text>
<polyline fill="none" stroke="black" points="97,-251.5 273,-251.5 "/>
<text text-anchor="middle" x="185" y="-236.3" font-family="Times,serif" font-size="14.00" fill="#000000">op_code=call_function</text>
<polyline fill="none" stroke="black" points="97,-228.5 273,-228.5 "/>
<text text-anchor="middle" x="185" y="-213.3" font-family="Times,serif" font-size="14.00" fill="#000000">target=_operator.add</text>
<polyline fill="none" stroke="black" points="97,-205.5 273,-205.5 "/>
<text text-anchor="start" x="105" y="-190.3" font-family="Times,serif" font-size="14.00" fill="#000000">args=(</text>
<text text-anchor="middle" x="185" y="-175.3" font-family="Times,serif" font-size="14.00" fill="#000000">1,</text>
<text text-anchor="start" x="105" y="-160.3" font-family="Times,serif" font-size="14.00" fill="#000000">)</text>
<polyline fill="none" stroke="black" points="97,-152.5 273,-152.5 "/>
<text text-anchor="middle" x="185" y="-137.3" font-family="Times,serif" font-size="14.00" fill="#000000">num_users=1</text>
</g>
<!-- add&#45;&gt;add_1 -->
<g id="edge5" class="edge">
<title>add&#45;&gt;add_1</title>
<path fill="none" stroke="black" d="M185,-311.28C185,-302.92 185,-293.97 185,-284.91"/>
<polygon fill="black" stroke="black" points="188.5,-284.68 185,-274.68 181.5,-284.68 188.5,-284.68"/>
</g>
<!-- output -->
<g id="node6" class="node">
<title>output</title>
<path fill="PowderBlue" stroke="black" d="M130.5,-0.5C130.5,-0.5 239.5,-0.5 239.5,-0.5 245.5,-0.5 251.5,-6.5 251.5,-12.5 251.5,-12.5 251.5,-80.5 251.5,-80.5 251.5,-86.5 245.5,-92.5 239.5,-92.5 239.5,-92.5 130.5,-92.5 130.5,-92.5 124.5,-92.5 118.5,-86.5 118.5,-80.5 118.5,-80.5 118.5,-12.5 118.5,-12.5 118.5,-6.5 124.5,-0.5 130.5,-0.5"/>
<text text-anchor="middle" x="185" y="-77.3" font-family="Times,serif" font-size="14.00" fill="#000000">name=%output</text>
<polyline fill="none" stroke="black" points="118.5,-69.5 251.5,-69.5 "/>
<text text-anchor="middle" x="185" y="-54.3" font-family="Times,serif" font-size="14.00" fill="#000000">op_code=output</text>
<polyline fill="none" stroke="black" points="118.5,-46.5 251.5,-46.5 "/>
<text text-anchor="middle" x="185" y="-31.3" font-family="Times,serif" font-size="14.00" fill="#000000">target=output</text>
<polyline fill="none" stroke="black" points="118.5,-23.5 251.5,-23.5 "/>
<text text-anchor="middle" x="185" y="-8.3" font-family="Times,serif" font-size="14.00" fill="#000000">num_users=0</text>
</g>
<!-- add_1&#45;&gt;output -->
<g id="edge6" class="edge">
<title>add_1&#45;&gt;output</title>
<path fill="none" stroke="black" d="M185,-129.19C185,-120.32 185,-111.35 185,-102.78"/>
<polygon fill="black" stroke="black" points="188.5,-102.54 185,-92.54 181.5,-102.54 188.5,-102.54"/>
</g>
</g>
</svg>
