<?xml version="1.0" encoding="UTF-8" standalone="no"?>
<!DOCTYPE svg PUBLIC "-//W3C//DTD SVG 1.1//EN"
 "http://www.w3.org/Graphics/SVG/1.1/DTD/svg11.dtd">
<!-- Generated by graphviz version 2.43.0 (0)
 -->
<!-- Title: fn Pages: 1 -->
<svg width="1042pt" height="1754pt"
 viewBox="0.00 0.00 1041.50 1754.00" xmlns="http://www.w3.org/2000/svg" xmlns:xlink="http://www.w3.org/1999/xlink">
<g id="graph0" class="graph" transform="scale(1 1) rotate(0) translate(4 1750)">
<title>fn</title>
<polygon fill="white" stroke="transparent" points="-4,4 -4,-1750 1037.5,-1750 1037.5,4 -4,4"/>
<!-- primals_1 -->
<g id="node1" class="node">
<title>primals_1</title>
<path fill="AliceBlue" stroke="black" d="M408,-1561.5C408,-1561.5 564,-1561.5 564,-1561.5 570,-1561.5 576,-1567.5 576,-1573.5 576,-1573.5 576,-1733.5 576,-1733.5 576,-1739.5 570,-1745.5 564,-1745.5 564,-1745.5 408,-1745.5 408,-1745.5 402,-1745.5 396,-1739.5 396,-1733.5 396,-1733.5 396,-1573.5 396,-1573.5 396,-1567.5 402,-1561.5 408,-1561.5"/>
<text text-anchor="middle" x="486" y="-1730.3" font-family="Times,serif" font-size="14.00" fill="#000000">name=%primals_1</text>
<polyline fill="none" stroke="black" points="396,-1722.5 576,-1722.5 "/>
<text text-anchor="middle" x="486" y="-1707.3" font-family="Times,serif" font-size="14.00" fill="#000000">op_code=placeholder</text>
<polyline fill="none" stroke="black" points="396,-1699.5 576,-1699.5 "/>
<text text-anchor="middle" x="486" y="-1684.3" font-family="Times,serif" font-size="14.00" fill="#000000">target=primals_1</text>
<polyline fill="none" stroke="black" points="396,-1676.5 576,-1676.5 "/>
<text text-anchor="middle" x="486" y="-1661.3" font-family="Times,serif" font-size="14.00" fill="#000000">num_users=3</text>
<polyline fill="none" stroke="black" points="396,-1653.5 576,-1653.5 "/>
<text text-anchor="middle" x="486" y="-1638.3" font-family="Times,serif" font-size="14.00" fill="#000000">dtype=torch.float32</text>
<polyline fill="none" stroke="black" points="396,-1630.5 576,-1630.5 "/>
<text text-anchor="middle" x="486" y="-1615.3" font-family="Times,serif" font-size="14.00" fill="#000000">shape=(10000, 10000)</text>
<polyline fill="none" stroke="black" points="396,-1607.5 576,-1607.5 "/>
<text text-anchor="middle" x="486" y="-1592.3" font-family="Times,serif" font-size="14.00" fill="#000000">requires_grad=True</text>
<polyline fill="none" stroke="black" points="396,-1584.5 576,-1584.5 "/>
<text text-anchor="middle" x="486" y="-1569.3" font-family="Times,serif" font-size="14.00" fill="#000000">stride=(10000, 1)</text>
</g>
<!-- pow_4 -->
<g id="node3" class="node">
<title>pow_4</title>
<path fill="#fff0f5" stroke="black" d="M342,-1287.5C342,-1287.5 630,-1287.5 630,-1287.5 636,-1287.5 642,-1293.5 642,-1299.5 642,-1299.5 642,-1512.5 642,-1512.5 642,-1518.5 636,-1524.5 630,-1524.5 630,-1524.5 342,-1524.5 342,-1524.5 336,-1524.5 330,-1518.5 330,-1512.5 330,-1512.5 330,-1299.5 330,-1299.5 330,-1293.5 336,-1287.5 342,-1287.5"/>
<text text-anchor="middle" x="486" y="-1509.3" font-family="Times,serif" font-size="14.00" fill="#000000">name=%pow_4</text>
<polyline fill="none" stroke="black" points="330,-1501.5 642,-1501.5 "/>
<text text-anchor="middle" x="486" y="-1486.3" font-family="Times,serif" font-size="14.00" fill="#000000">op_code=call_function</text>
<polyline fill="none" stroke="black" points="330,-1478.5 642,-1478.5 "/>
<text text-anchor="middle" x="486" y="-1463.3" font-family="Times,serif" font-size="14.00" fill="#000000">target=torch.ops.aten.pow.Tensor_Scalar</text>
<polyline fill="none" stroke="black" points="330,-1455.5 642,-1455.5 "/>
<text text-anchor="start" x="338" y="-1440.3" font-family="Times,serif" font-size="14.00" fill="#000000">args=(</text>
<text text-anchor="middle" x="486" y="-1425.3" font-family="Times,serif" font-size="14.00" fill="#000000">1.0,</text>
<text text-anchor="start" x="338" y="-1410.3" font-family="Times,serif" font-size="14.00" fill="#000000">)</text>
<polyline fill="none" stroke="black" points="330,-1402.5 642,-1402.5 "/>
<text text-anchor="middle" x="486" y="-1387.3" font-family="Times,serif" font-size="14.00" fill="#000000">num_users=1</text>
<polyline fill="none" stroke="black" points="330,-1379.5 642,-1379.5 "/>
<text text-anchor="middle" x="486" y="-1364.3" font-family="Times,serif" font-size="14.00" fill="#000000">dtype=torch.float32</text>
<polyline fill="none" stroke="black" points="330,-1356.5 642,-1356.5 "/>
<text text-anchor="middle" x="486" y="-1341.3" font-family="Times,serif" font-size="14.00" fill="#000000">shape=(10000, 10000)</text>
<polyline fill="none" stroke="black" points="330,-1333.5 642,-1333.5 "/>
<text text-anchor="middle" x="486" y="-1318.3" font-family="Times,serif" font-size="14.00" fill="#000000">requires_grad=True</text>
<polyline fill="none" stroke="black" points="330,-1310.5 642,-1310.5 "/>
<text text-anchor="middle" x="486" y="-1295.3" font-family="Times,serif" font-size="14.00" fill="#000000">stride=(10000, 1)</text>
</g>
<!-- primals_1&#45;&gt;pow_4 -->
<g id="edge1" class="edge">
<title>primals_1&#45;&gt;pow_4</title>
<path fill="none" stroke="black" d="M486,-1561.43C486,-1552.71 486,-1543.75 486,-1534.76"/>
<polygon fill="black" stroke="black" points="489.5,-1534.61 486,-1524.61 482.5,-1534.61 489.5,-1534.61"/>
</g>
<!-- pow_5 -->
<g id="node7" class="node">
<title>pow_5</title>
<path fill="#fff0f5" stroke="black" d="M12,-1287.5C12,-1287.5 300,-1287.5 300,-1287.5 306,-1287.5 312,-1293.5 312,-1299.5 312,-1299.5 312,-1512.5 312,-1512.5 312,-1518.5 306,-1524.5 300,-1524.5 300,-1524.5 12,-1524.5 12,-1524.5 6,-1524.5 0,-1518.5 0,-1512.5 0,-1512.5 0,-1299.5 0,-1299.5 0,-1293.5 6,-1287.5 12,-1287.5"/>
<text text-anchor="middle" x="156" y="-1509.3" font-family="Times,serif" font-size="14.00" fill="#000000">name=%pow_5</text>
<polyline fill="none" stroke="black" points="0,-1501.5 312,-1501.5 "/>
<text text-anchor="middle" x="156" y="-1486.3" font-family="Times,serif" font-size="14.00" fill="#000000">op_code=call_function</text>
<polyline fill="none" stroke="black" points="0,-1478.5 312,-1478.5 "/>
<text text-anchor="middle" x="156" y="-1463.3" font-family="Times,serif" font-size="14.00" fill="#000000">target=torch.ops.aten.pow.Tensor_Scalar</text>
<polyline fill="none" stroke="black" points="0,-1455.5 312,-1455.5 "/>
<text text-anchor="start" x="8" y="-1440.3" font-family="Times,serif" font-size="14.00" fill="#000000">args=(</text>
<text text-anchor="middle" x="156" y="-1425.3" font-family="Times,serif" font-size="14.00" fill="#000000">2.0,</text>
<text text-anchor="start" x="8" y="-1410.3" font-family="Times,serif" font-size="14.00" fill="#000000">)</text>
<polyline fill="none" stroke="black" points="0,-1402.5 312,-1402.5 "/>
<text text-anchor="middle" x="156" y="-1387.3" font-family="Times,serif" font-size="14.00" fill="#000000">num_users=1</text>
<polyline fill="none" stroke="black" points="0,-1379.5 312,-1379.5 "/>
<text text-anchor="middle" x="156" y="-1364.3" font-family="Times,serif" font-size="14.00" fill="#000000">dtype=torch.float32</text>
<polyline fill="none" stroke="black" points="0,-1356.5 312,-1356.5 "/>
<text text-anchor="middle" x="156" y="-1341.3" font-family="Times,serif" font-size="14.00" fill="#000000">shape=(10000, 10000)</text>
<polyline fill="none" stroke="black" points="0,-1333.5 312,-1333.5 "/>
<text text-anchor="middle" x="156" y="-1318.3" font-family="Times,serif" font-size="14.00" fill="#000000">requires_grad=False</text>
<polyline fill="none" stroke="black" points="0,-1310.5 312,-1310.5 "/>
<text text-anchor="middle" x="156" y="-1295.3" font-family="Times,serif" font-size="14.00" fill="#000000">stride=(10000, 1)</text>
</g>
<!-- primals_1&#45;&gt;pow_5 -->
<g id="edge2" class="edge">
<title>primals_1&#45;&gt;pow_5</title>
<path fill="none" stroke="black" d="M395.83,-1585.42C372.31,-1567.92 346.21,-1548.51 320.15,-1529.12"/>
<polygon fill="black" stroke="black" points="322.17,-1526.26 312.06,-1523.1 318,-1531.88 322.17,-1526.26"/>
</g>
<!-- pow_6 -->
<g id="node11" class="node">
<title>pow_6</title>
<path fill="#fff0f5" stroke="black" d="M716,-1287.5C716,-1287.5 1004,-1287.5 1004,-1287.5 1010,-1287.5 1016,-1293.5 1016,-1299.5 1016,-1299.5 1016,-1512.5 1016,-1512.5 1016,-1518.5 1010,-1524.5 1004,-1524.5 1004,-1524.5 716,-1524.5 716,-1524.5 710,-1524.5 704,-1518.5 704,-1512.5 704,-1512.5 704,-1299.5 704,-1299.5 704,-1293.5 710,-1287.5 716,-1287.5"/>
<text text-anchor="middle" x="860" y="-1509.3" font-family="Times,serif" font-size="14.00" fill="#000000">name=%pow_6</text>
<polyline fill="none" stroke="black" points="704,-1501.5 1016,-1501.5 "/>
<text text-anchor="middle" x="860" y="-1486.3" font-family="Times,serif" font-size="14.00" fill="#000000">op_code=call_function</text>
<polyline fill="none" stroke="black" points="704,-1478.5 1016,-1478.5 "/>
<text text-anchor="middle" x="860" y="-1463.3" font-family="Times,serif" font-size="14.00" fill="#000000">target=torch.ops.aten.pow.Tensor_Scalar</text>
<polyline fill="none" stroke="black" points="704,-1455.5 1016,-1455.5 "/>
<text text-anchor="start" x="712" y="-1440.3" font-family="Times,serif" font-size="14.00" fill="#000000">args=(</text>
<text text-anchor="middle" x="860" y="-1425.3" font-family="Times,serif" font-size="14.00" fill="#000000">3.0,</text>
<text text-anchor="start" x="712" y="-1410.3" font-family="Times,serif" font-size="14.00" fill="#000000">)</text>
<polyline fill="none" stroke="black" points="704,-1402.5 1016,-1402.5 "/>
<text text-anchor="middle" x="860" y="-1387.3" font-family="Times,serif" font-size="14.00" fill="#000000">num_users=1</text>
<polyline fill="none" stroke="black" points="704,-1379.5 1016,-1379.5 "/>
<text text-anchor="middle" x="860" y="-1364.3" font-family="Times,serif" font-size="14.00" fill="#000000">dtype=torch.float32</text>
<polyline fill="none" stroke="black" points="704,-1356.5 1016,-1356.5 "/>
<text text-anchor="middle" x="860" y="-1341.3" font-family="Times,serif" font-size="14.00" fill="#000000">shape=(10000, 10000)</text>
<polyline fill="none" stroke="black" points="704,-1333.5 1016,-1333.5 "/>
<text text-anchor="middle" x="860" y="-1318.3" font-family="Times,serif" font-size="14.00" fill="#000000">requires_grad=False</text>
<polyline fill="none" stroke="black" points="704,-1310.5 1016,-1310.5 "/>
<text text-anchor="middle" x="860" y="-1295.3" font-family="Times,serif" font-size="14.00" fill="#000000">stride=(10000, 1)</text>
</g>
<!-- primals_1&#45;&gt;pow_6 -->
<g id="edge3" class="edge">
<title>primals_1&#45;&gt;pow_6</title>
<path fill="none" stroke="black" d="M576.06,-1593.38C611.95,-1569.82 654.43,-1541.94 695.45,-1515.02"/>
<polygon fill="black" stroke="black" points="697.46,-1517.88 703.9,-1509.47 693.62,-1512.03 697.46,-1517.88"/>
</g>
<!-- tangents_1 -->
<g id="node2" class="node">
<title>tangents_1</title>
<path fill="AliceBlue" stroke="black" d="M590,-1040C590,-1040 746,-1040 746,-1040 752,-1040 758,-1046 758,-1052 758,-1052 758,-1212 758,-1212 758,-1218 752,-1224 746,-1224 746,-1224 590,-1224 590,-1224 584,-1224 578,-1218 578,-1212 578,-1212 578,-1052 578,-1052 578,-1046 584,-1040 590,-1040"/>
<text text-anchor="middle" x="668" y="-1208.8" font-family="Times,serif" font-size="14.00" fill="#000000">name=%tangents_1</text>
<polyline fill="none" stroke="black" points="578,-1201 758,-1201 "/>
<text text-anchor="middle" x="668" y="-1185.8" font-family="Times,serif" font-size="14.00" fill="#000000">op_code=placeholder</text>
<polyline fill="none" stroke="black" points="578,-1178 758,-1178 "/>
<text text-anchor="middle" x="668" y="-1162.8" font-family="Times,serif" font-size="14.00" fill="#000000">target=tangents_1</text>
<polyline fill="none" stroke="black" points="578,-1155 758,-1155 "/>
<text text-anchor="middle" x="668" y="-1139.8" font-family="Times,serif" font-size="14.00" fill="#000000">num_users=4</text>
<polyline fill="none" stroke="black" points="578,-1132 758,-1132 "/>
<text text-anchor="middle" x="668" y="-1116.8" font-family="Times,serif" font-size="14.00" fill="#000000">dtype=torch.float32</text>
<polyline fill="none" stroke="black" points="578,-1109 758,-1109 "/>
<text text-anchor="middle" x="668" y="-1093.8" font-family="Times,serif" font-size="14.00" fill="#000000">shape=(10000, 10000)</text>
<polyline fill="none" stroke="black" points="578,-1086 758,-1086 "/>
<text text-anchor="middle" x="668" y="-1070.8" font-family="Times,serif" font-size="14.00" fill="#000000">requires_grad=False</text>
<polyline fill="none" stroke="black" points="578,-1063 758,-1063 "/>
<text text-anchor="middle" x="668" y="-1047.8" font-family="Times,serif" font-size="14.00" fill="#000000">stride=(10000, 1)</text>
</g>
<!-- mul_1 -->
<g id="node5" class="node">
<title>mul_1</title>
<path fill="#ffe7ba" stroke="black" d="M392,-792.5C392,-792.5 628,-792.5 628,-792.5 634,-792.5 640,-798.5 640,-804.5 640,-804.5 640,-964.5 640,-964.5 640,-970.5 634,-976.5 628,-976.5 628,-976.5 392,-976.5 392,-976.5 386,-976.5 380,-970.5 380,-964.5 380,-964.5 380,-804.5 380,-804.5 380,-798.5 386,-792.5 392,-792.5"/>
<text text-anchor="middle" x="510" y="-961.3" font-family="Times,serif" font-size="14.00" fill="#000000">name=%mul_1</text>
<polyline fill="none" stroke="black" points="380,-953.5 640,-953.5 "/>
<text text-anchor="middle" x="510" y="-938.3" font-family="Times,serif" font-size="14.00" fill="#000000">op_code=call_function</text>
<polyline fill="none" stroke="black" points="380,-930.5 640,-930.5 "/>
<text text-anchor="middle" x="510" y="-915.3" font-family="Times,serif" font-size="14.00" fill="#000000">target=torch.ops.aten.mul.Tensor</text>
<polyline fill="none" stroke="black" points="380,-907.5 640,-907.5 "/>
<text text-anchor="middle" x="510" y="-892.3" font-family="Times,serif" font-size="14.00" fill="#000000">num_users=1</text>
<polyline fill="none" stroke="black" points="380,-884.5 640,-884.5 "/>
<text text-anchor="middle" x="510" y="-869.3" font-family="Times,serif" font-size="14.00" fill="#000000">dtype=torch.float32</text>
<polyline fill="none" stroke="black" points="380,-861.5 640,-861.5 "/>
<text text-anchor="middle" x="510" y="-846.3" font-family="Times,serif" font-size="14.00" fill="#000000">shape=(10000, 10000)</text>
<polyline fill="none" stroke="black" points="380,-838.5 640,-838.5 "/>
<text text-anchor="middle" x="510" y="-823.3" font-family="Times,serif" font-size="14.00" fill="#000000">requires_grad=False</text>
<polyline fill="none" stroke="black" points="380,-815.5 640,-815.5 "/>
<text text-anchor="middle" x="510" y="-800.3" font-family="Times,serif" font-size="14.00" fill="#000000">stride=(10000, 1)</text>
</g>
<!-- tangents_1&#45;&gt;mul_1 -->
<g id="edge4" class="edge">
<title>tangents_1&#45;&gt;mul_1</title>
<path fill="none" stroke="black" d="M609.39,-1039.93C597.99,-1022.23 585.99,-1003.57 574.42,-985.59"/>
<polygon fill="black" stroke="black" points="577.13,-983.34 568.78,-976.83 571.25,-987.13 577.13,-983.34"/>
</g>
<!-- add_3 -->
<g id="node6" class="node">
<title>add_3</title>
<path fill="#ffe4e1" stroke="black" d="M431.5,-571.5C431.5,-571.5 666.5,-571.5 666.5,-571.5 672.5,-571.5 678.5,-577.5 678.5,-583.5 678.5,-583.5 678.5,-743.5 678.5,-743.5 678.5,-749.5 672.5,-755.5 666.5,-755.5 666.5,-755.5 431.5,-755.5 431.5,-755.5 425.5,-755.5 419.5,-749.5 419.5,-743.5 419.5,-743.5 419.5,-583.5 419.5,-583.5 419.5,-577.5 425.5,-571.5 431.5,-571.5"/>
<text text-anchor="middle" x="549" y="-740.3" font-family="Times,serif" font-size="14.00" fill="#000000">name=%add_3</text>
<polyline fill="none" stroke="black" points="419.5,-732.5 678.5,-732.5 "/>
<text text-anchor="middle" x="549" y="-717.3" font-family="Times,serif" font-size="14.00" fill="#000000">op_code=call_function</text>
<polyline fill="none" stroke="black" points="419.5,-709.5 678.5,-709.5 "/>
<text text-anchor="middle" x="549" y="-694.3" font-family="Times,serif" font-size="14.00" fill="#000000">target=torch.ops.aten.add.Tensor</text>
<polyline fill="none" stroke="black" points="419.5,-686.5 678.5,-686.5 "/>
<text text-anchor="middle" x="549" y="-671.3" font-family="Times,serif" font-size="14.00" fill="#000000">num_users=1</text>
<polyline fill="none" stroke="black" points="419.5,-663.5 678.5,-663.5 "/>
<text text-anchor="middle" x="549" y="-648.3" font-family="Times,serif" font-size="14.00" fill="#000000">dtype=torch.float32</text>
<polyline fill="none" stroke="black" points="419.5,-640.5 678.5,-640.5 "/>
<text text-anchor="middle" x="549" y="-625.3" font-family="Times,serif" font-size="14.00" fill="#000000">shape=(10000, 10000)</text>
<polyline fill="none" stroke="black" points="419.5,-617.5 678.5,-617.5 "/>
<text text-anchor="middle" x="549" y="-602.3" font-family="Times,serif" font-size="14.00" fill="#000000">requires_grad=False</text>
<polyline fill="none" stroke="black" points="419.5,-594.5 678.5,-594.5 "/>
<text text-anchor="middle" x="549" y="-579.3" font-family="Times,serif" font-size="14.00" fill="#000000">stride=(10000, 1)</text>
</g>
<!-- tangents_1&#45;&gt;add_3 -->
<g id="edge5" class="edge">
<title>tangents_1&#45;&gt;add_3</title>
<path fill="none" stroke="black" d="M677.41,-1039.81C681.24,-969.77 679.1,-871.84 649,-792 645.46,-782.62 640.98,-773.39 635.87,-764.43"/>
<polygon fill="black" stroke="black" points="638.71,-762.36 630.57,-755.58 632.7,-765.96 638.71,-762.36"/>
</g>
<!-- mul_3 -->
<g id="node9" class="node">
<title>mul_3</title>
<path fill="#ffe7ba" stroke="black" d="M114,-792.5C114,-792.5 350,-792.5 350,-792.5 356,-792.5 362,-798.5 362,-804.5 362,-804.5 362,-964.5 362,-964.5 362,-970.5 356,-976.5 350,-976.5 350,-976.5 114,-976.5 114,-976.5 108,-976.5 102,-970.5 102,-964.5 102,-964.5 102,-804.5 102,-804.5 102,-798.5 108,-792.5 114,-792.5"/>
<text text-anchor="middle" x="232" y="-961.3" font-family="Times,serif" font-size="14.00" fill="#000000">name=%mul_3</text>
<polyline fill="none" stroke="black" points="102,-953.5 362,-953.5 "/>
<text text-anchor="middle" x="232" y="-938.3" font-family="Times,serif" font-size="14.00" fill="#000000">op_code=call_function</text>
<polyline fill="none" stroke="black" points="102,-930.5 362,-930.5 "/>
<text text-anchor="middle" x="232" y="-915.3" font-family="Times,serif" font-size="14.00" fill="#000000">target=torch.ops.aten.mul.Tensor</text>
<polyline fill="none" stroke="black" points="102,-907.5 362,-907.5 "/>
<text text-anchor="middle" x="232" y="-892.3" font-family="Times,serif" font-size="14.00" fill="#000000">num_users=1</text>
<polyline fill="none" stroke="black" points="102,-884.5 362,-884.5 "/>
<text text-anchor="middle" x="232" y="-869.3" font-family="Times,serif" font-size="14.00" fill="#000000">dtype=torch.float32</text>
<polyline fill="none" stroke="black" points="102,-861.5 362,-861.5 "/>
<text text-anchor="middle" x="232" y="-846.3" font-family="Times,serif" font-size="14.00" fill="#000000">shape=(10000, 10000)</text>
<polyline fill="none" stroke="black" points="102,-838.5 362,-838.5 "/>
<text text-anchor="middle" x="232" y="-823.3" font-family="Times,serif" font-size="14.00" fill="#000000">requires_grad=False</text>
<polyline fill="none" stroke="black" points="102,-815.5 362,-815.5 "/>
<text text-anchor="middle" x="232" y="-800.3" font-family="Times,serif" font-size="14.00" fill="#000000">stride=(10000, 1)</text>
</g>
<!-- tangents_1&#45;&gt;mul_3 -->
<g id="edge6" class="edge">
<title>tangents_1&#45;&gt;mul_3</title>
<path fill="none" stroke="black" d="M602.62,-1039.81C592.04,-1029.53 580.44,-1020.19 568,-1013 493.66,-970.01 456.28,-1007.31 371.6,-976.86"/>
<polygon fill="black" stroke="black" points="372.74,-973.55 362.15,-973.26 370.24,-980.09 372.74,-973.55"/>
</g>
<!-- mul_5 -->
<g id="node13" class="node">
<title>mul_5</title>
<path fill="#ffe7ba" stroke="black" d="M708,-792.5C708,-792.5 944,-792.5 944,-792.5 950,-792.5 956,-798.5 956,-804.5 956,-804.5 956,-964.5 956,-964.5 956,-970.5 950,-976.5 944,-976.5 944,-976.5 708,-976.5 708,-976.5 702,-976.5 696,-970.5 696,-964.5 696,-964.5 696,-804.5 696,-804.5 696,-798.5 702,-792.5 708,-792.5"/>
<text text-anchor="middle" x="826" y="-961.3" font-family="Times,serif" font-size="14.00" fill="#000000">name=%mul_5</text>
<polyline fill="none" stroke="black" points="696,-953.5 956,-953.5 "/>
<text text-anchor="middle" x="826" y="-938.3" font-family="Times,serif" font-size="14.00" fill="#000000">op_code=call_function</text>
<polyline fill="none" stroke="black" points="696,-930.5 956,-930.5 "/>
<text text-anchor="middle" x="826" y="-915.3" font-family="Times,serif" font-size="14.00" fill="#000000">target=torch.ops.aten.mul.Tensor</text>
<polyline fill="none" stroke="black" points="696,-907.5 956,-907.5 "/>
<text text-anchor="middle" x="826" y="-892.3" font-family="Times,serif" font-size="14.00" fill="#000000">num_users=1</text>
<polyline fill="none" stroke="black" points="696,-884.5 956,-884.5 "/>
<text text-anchor="middle" x="826" y="-869.3" font-family="Times,serif" font-size="14.00" fill="#000000">dtype=torch.float32</text>
<polyline fill="none" stroke="black" points="696,-861.5 956,-861.5 "/>
<text text-anchor="middle" x="826" y="-846.3" font-family="Times,serif" font-size="14.00" fill="#000000">shape=(10000, 10000)</text>
<polyline fill="none" stroke="black" points="696,-838.5 956,-838.5 "/>
<text text-anchor="middle" x="826" y="-823.3" font-family="Times,serif" font-size="14.00" fill="#000000">requires_grad=False</text>
<polyline fill="none" stroke="black" points="696,-815.5 956,-815.5 "/>
<text text-anchor="middle" x="826" y="-800.3" font-family="Times,serif" font-size="14.00" fill="#000000">stride=(10000, 1)</text>
</g>
<!-- tangents_1&#45;&gt;mul_5 -->
<g id="edge7" class="edge">
<title>tangents_1&#45;&gt;mul_5</title>
<path fill="none" stroke="black" d="M726.61,-1039.93C738.01,-1022.23 750.01,-1003.57 761.58,-985.59"/>
<polygon fill="black" stroke="black" points="764.75,-987.13 767.22,-976.83 758.87,-983.34 764.75,-987.13"/>
</g>
<!-- mul -->
<g id="node4" class="node">
<title>mul</title>
<path fill="#ffe1ff" stroke="black" d="M314.5,-1013.5C314.5,-1013.5 547.5,-1013.5 547.5,-1013.5 553.5,-1013.5 559.5,-1019.5 559.5,-1025.5 559.5,-1025.5 559.5,-1238.5 559.5,-1238.5 559.5,-1244.5 553.5,-1250.5 547.5,-1250.5 547.5,-1250.5 314.5,-1250.5 314.5,-1250.5 308.5,-1250.5 302.5,-1244.5 302.5,-1238.5 302.5,-1238.5 302.5,-1025.5 302.5,-1025.5 302.5,-1019.5 308.5,-1013.5 314.5,-1013.5"/>
<text text-anchor="middle" x="431" y="-1235.3" font-family="Times,serif" font-size="14.00" fill="#000000">name=%mul</text>
<polyline fill="none" stroke="black" points="302.5,-1227.5 559.5,-1227.5 "/>
<text text-anchor="middle" x="431" y="-1212.3" font-family="Times,serif" font-size="14.00" fill="#000000">op_code=call_function</text>
<polyline fill="none" stroke="black" points="302.5,-1204.5 559.5,-1204.5 "/>
<text text-anchor="middle" x="431" y="-1189.3" font-family="Times,serif" font-size="14.00" fill="#000000">target=torch.ops.aten.mul.Scalar</text>
<polyline fill="none" stroke="black" points="302.5,-1181.5 559.5,-1181.5 "/>
<text text-anchor="start" x="310.5" y="-1166.3" font-family="Times,serif" font-size="14.00" fill="#000000">args=(</text>
<text text-anchor="middle" x="431" y="-1151.3" font-family="Times,serif" font-size="14.00" fill="#000000">2.0,</text>
<text text-anchor="start" x="310.5" y="-1136.3" font-family="Times,serif" font-size="14.00" fill="#000000">)</text>
<polyline fill="none" stroke="black" points="302.5,-1128.5 559.5,-1128.5 "/>
<text text-anchor="middle" x="431" y="-1113.3" font-family="Times,serif" font-size="14.00" fill="#000000">num_users=1</text>
<polyline fill="none" stroke="black" points="302.5,-1105.5 559.5,-1105.5 "/>
<text text-anchor="middle" x="431" y="-1090.3" font-family="Times,serif" font-size="14.00" fill="#000000">dtype=torch.float32</text>
<polyline fill="none" stroke="black" points="302.5,-1082.5 559.5,-1082.5 "/>
<text text-anchor="middle" x="431" y="-1067.3" font-family="Times,serif" font-size="14.00" fill="#000000">shape=(10000, 10000)</text>
<polyline fill="none" stroke="black" points="302.5,-1059.5 559.5,-1059.5 "/>
<text text-anchor="middle" x="431" y="-1044.3" font-family="Times,serif" font-size="14.00" fill="#000000">requires_grad=False</text>
<polyline fill="none" stroke="black" points="302.5,-1036.5 559.5,-1036.5 "/>
<text text-anchor="middle" x="431" y="-1021.3" font-family="Times,serif" font-size="14.00" fill="#000000">stride=(10000, 1)</text>
</g>
<!-- pow_4&#45;&gt;mul -->
<g id="edge8" class="edge">
<title>pow_4&#45;&gt;mul</title>
<path fill="none" stroke="black" d="M462.2,-1287.28C460.42,-1278.52 458.63,-1269.65 456.85,-1260.83"/>
<polygon fill="black" stroke="black" points="460.25,-1260.01 454.84,-1250.9 453.39,-1261.4 460.25,-1260.01"/>
</g>
<!-- mul&#45;&gt;mul_1 -->
<g id="edge9" class="edge">
<title>mul&#45;&gt;mul_1</title>
<path fill="none" stroke="black" d="M468.88,-1013.28C471.79,-1004.25 474.71,-995.17 477.58,-986.26"/>
<polygon fill="black" stroke="black" points="480.93,-987.25 480.67,-976.66 474.27,-985.11 480.93,-987.25"/>
</g>
<!-- mul_1&#45;&gt;add_3 -->
<g id="edge10" class="edge">
<title>mul_1&#45;&gt;add_3</title>
<path fill="none" stroke="black" d="M526.26,-792.21C527.82,-783.43 529.41,-774.48 530.99,-765.61"/>
<polygon fill="black" stroke="black" points="534.46,-766.1 532.77,-755.64 527.57,-764.87 534.46,-766.1"/>
</g>
<!-- add_4 -->
<g id="node10" class="node">
<title>add_4</title>
<path fill="#ffe4e1" stroke="black" d="M431.5,-350.5C431.5,-350.5 666.5,-350.5 666.5,-350.5 672.5,-350.5 678.5,-356.5 678.5,-362.5 678.5,-362.5 678.5,-522.5 678.5,-522.5 678.5,-528.5 672.5,-534.5 666.5,-534.5 666.5,-534.5 431.5,-534.5 431.5,-534.5 425.5,-534.5 419.5,-528.5 419.5,-522.5 419.5,-522.5 419.5,-362.5 419.5,-362.5 419.5,-356.5 425.5,-350.5 431.5,-350.5"/>
<text text-anchor="middle" x="549" y="-519.3" font-family="Times,serif" font-size="14.00" fill="#000000">name=%add_4</text>
<polyline fill="none" stroke="black" points="419.5,-511.5 678.5,-511.5 "/>
<text text-anchor="middle" x="549" y="-496.3" font-family="Times,serif" font-size="14.00" fill="#000000">op_code=call_function</text>
<polyline fill="none" stroke="black" points="419.5,-488.5 678.5,-488.5 "/>
<text text-anchor="middle" x="549" y="-473.3" font-family="Times,serif" font-size="14.00" fill="#000000">target=torch.ops.aten.add.Tensor</text>
<polyline fill="none" stroke="black" points="419.5,-465.5 678.5,-465.5 "/>
<text text-anchor="middle" x="549" y="-450.3" font-family="Times,serif" font-size="14.00" fill="#000000">num_users=1</text>
<polyline fill="none" stroke="black" points="419.5,-442.5 678.5,-442.5 "/>
<text text-anchor="middle" x="549" y="-427.3" font-family="Times,serif" font-size="14.00" fill="#000000">dtype=torch.float32</text>
<polyline fill="none" stroke="black" points="419.5,-419.5 678.5,-419.5 "/>
<text text-anchor="middle" x="549" y="-404.3" font-family="Times,serif" font-size="14.00" fill="#000000">shape=(10000, 10000)</text>
<polyline fill="none" stroke="black" points="419.5,-396.5 678.5,-396.5 "/>
<text text-anchor="middle" x="549" y="-381.3" font-family="Times,serif" font-size="14.00" fill="#000000">requires_grad=False</text>
<polyline fill="none" stroke="black" points="419.5,-373.5 678.5,-373.5 "/>
<text text-anchor="middle" x="549" y="-358.3" font-family="Times,serif" font-size="14.00" fill="#000000">stride=(10000, 1)</text>
</g>
<!-- add_3&#45;&gt;add_4 -->
<g id="edge11" class="edge">
<title>add_3&#45;&gt;add_4</title>
<path fill="none" stroke="black" d="M549,-571.21C549,-562.52 549,-553.68 549,-544.9"/>
<polygon fill="black" stroke="black" points="552.5,-544.64 549,-534.64 545.5,-544.64 552.5,-544.64"/>
</g>
<!-- mul_2 -->
<g id="node8" class="node">
<title>mul_2</title>
<path fill="#ffe1ff" stroke="black" d="M39.5,-1013.5C39.5,-1013.5 272.5,-1013.5 272.5,-1013.5 278.5,-1013.5 284.5,-1019.5 284.5,-1025.5 284.5,-1025.5 284.5,-1238.5 284.5,-1238.5 284.5,-1244.5 278.5,-1250.5 272.5,-1250.5 272.5,-1250.5 39.5,-1250.5 39.5,-1250.5 33.5,-1250.5 27.5,-1244.5 27.5,-1238.5 27.5,-1238.5 27.5,-1025.5 27.5,-1025.5 27.5,-1019.5 33.5,-1013.5 39.5,-1013.5"/>
<text text-anchor="middle" x="156" y="-1235.3" font-family="Times,serif" font-size="14.00" fill="#000000">name=%mul_2</text>
<polyline fill="none" stroke="black" points="27.5,-1227.5 284.5,-1227.5 "/>
<text text-anchor="middle" x="156" y="-1212.3" font-family="Times,serif" font-size="14.00" fill="#000000">op_code=call_function</text>
<polyline fill="none" stroke="black" points="27.5,-1204.5 284.5,-1204.5 "/>
<text text-anchor="middle" x="156" y="-1189.3" font-family="Times,serif" font-size="14.00" fill="#000000">target=torch.ops.aten.mul.Scalar</text>
<polyline fill="none" stroke="black" points="27.5,-1181.5 284.5,-1181.5 "/>
<text text-anchor="start" x="35.5" y="-1166.3" font-family="Times,serif" font-size="14.00" fill="#000000">args=(</text>
<text text-anchor="middle" x="156" y="-1151.3" font-family="Times,serif" font-size="14.00" fill="#000000">3.0,</text>
<text text-anchor="start" x="35.5" y="-1136.3" font-family="Times,serif" font-size="14.00" fill="#000000">)</text>
<polyline fill="none" stroke="black" points="27.5,-1128.5 284.5,-1128.5 "/>
<text text-anchor="middle" x="156" y="-1113.3" font-family="Times,serif" font-size="14.00" fill="#000000">num_users=1</text>
<polyline fill="none" stroke="black" points="27.5,-1105.5 284.5,-1105.5 "/>
<text text-anchor="middle" x="156" y="-1090.3" font-family="Times,serif" font-size="14.00" fill="#000000">dtype=torch.float32</text>
<polyline fill="none" stroke="black" points="27.5,-1082.5 284.5,-1082.5 "/>
<text text-anchor="middle" x="156" y="-1067.3" font-family="Times,serif" font-size="14.00" fill="#000000">shape=(10000, 10000)</text>
<polyline fill="none" stroke="black" points="27.5,-1059.5 284.5,-1059.5 "/>
<text text-anchor="middle" x="156" y="-1044.3" font-family="Times,serif" font-size="14.00" fill="#000000">requires_grad=False</text>
<polyline fill="none" stroke="black" points="27.5,-1036.5 284.5,-1036.5 "/>
<text text-anchor="middle" x="156" y="-1021.3" font-family="Times,serif" font-size="14.00" fill="#000000">stride=(10000, 1)</text>
</g>
<!-- pow_5&#45;&gt;mul_2 -->
<g id="edge12" class="edge">
<title>pow_5&#45;&gt;mul_2</title>
<path fill="none" stroke="black" d="M156,-1287.28C156,-1278.61 156,-1269.84 156,-1261.12"/>
<polygon fill="black" stroke="black" points="159.5,-1260.9 156,-1250.9 152.5,-1260.9 159.5,-1260.9"/>
</g>
<!-- mul_2&#45;&gt;mul_3 -->
<g id="edge13" class="edge">
<title>mul_2&#45;&gt;mul_3</title>
<path fill="none" stroke="black" d="M192.44,-1013.28C195.24,-1004.25 198.05,-995.17 200.81,-986.26"/>
<polygon fill="black" stroke="black" points="204.17,-987.25 203.78,-976.66 197.48,-985.18 204.17,-987.25"/>
</g>
<!-- mul_3&#45;&gt;add_4 -->
<g id="edge14" class="edge">
<title>mul_3&#45;&gt;add_4</title>
<path fill="none" stroke="black" d="M274.43,-792.3C306.86,-727.33 355.21,-639.71 410,-571 417.89,-561.1 426.57,-551.29 435.61,-541.76"/>
<polygon fill="black" stroke="black" points="438.16,-544.16 442.59,-534.53 433.13,-539.29 438.16,-544.16"/>
</g>
<!-- add_5 -->
<g id="node14" class="node">
<title>add_5</title>
<path fill="#ffe4e1" stroke="black" d="M510.5,-129.5C510.5,-129.5 745.5,-129.5 745.5,-129.5 751.5,-129.5 757.5,-135.5 757.5,-141.5 757.5,-141.5 757.5,-301.5 757.5,-301.5 757.5,-307.5 751.5,-313.5 745.5,-313.5 745.5,-313.5 510.5,-313.5 510.5,-313.5 504.5,-313.5 498.5,-307.5 498.5,-301.5 498.5,-301.5 498.5,-141.5 498.5,-141.5 498.5,-135.5 504.5,-129.5 510.5,-129.5"/>
<text text-anchor="middle" x="628" y="-298.3" font-family="Times,serif" font-size="14.00" fill="#000000">name=%add_5</text>
<polyline fill="none" stroke="black" points="498.5,-290.5 757.5,-290.5 "/>
<text text-anchor="middle" x="628" y="-275.3" font-family="Times,serif" font-size="14.00" fill="#000000">op_code=call_function</text>
<polyline fill="none" stroke="black" points="498.5,-267.5 757.5,-267.5 "/>
<text text-anchor="middle" x="628" y="-252.3" font-family="Times,serif" font-size="14.00" fill="#000000">target=torch.ops.aten.add.Tensor</text>
<polyline fill="none" stroke="black" points="498.5,-244.5 757.5,-244.5 "/>
<text text-anchor="middle" x="628" y="-229.3" font-family="Times,serif" font-size="14.00" fill="#000000">num_users=1</text>
<polyline fill="none" stroke="black" points="498.5,-221.5 757.5,-221.5 "/>
<text text-anchor="middle" x="628" y="-206.3" font-family="Times,serif" font-size="14.00" fill="#000000">dtype=torch.float32</text>
<polyline fill="none" stroke="black" points="498.5,-198.5 757.5,-198.5 "/>
<text text-anchor="middle" x="628" y="-183.3" font-family="Times,serif" font-size="14.00" fill="#000000">shape=(10000, 10000)</text>
<polyline fill="none" stroke="black" points="498.5,-175.5 757.5,-175.5 "/>
<text text-anchor="middle" x="628" y="-160.3" font-family="Times,serif" font-size="14.00" fill="#000000">requires_grad=False</text>
<polyline fill="none" stroke="black" points="498.5,-152.5 757.5,-152.5 "/>
<text text-anchor="middle" x="628" y="-137.3" font-family="Times,serif" font-size="14.00" fill="#000000">stride=(10000, 1)</text>
</g>
<!-- add_4&#45;&gt;add_5 -->
<g id="edge15" class="edge">
<title>add_4&#45;&gt;add_5</title>
<path fill="none" stroke="black" d="M581.93,-350.21C585.13,-341.33 588.4,-332.29 591.63,-323.33"/>
<polygon fill="black" stroke="black" points="595.02,-324.24 595.12,-313.64 588.44,-321.86 595.02,-324.24"/>
</g>
<!-- mul_4 -->
<g id="node12" class="node">
<title>mul_4</title>
<path fill="#ffe1ff" stroke="black" d="M788.5,-1013.5C788.5,-1013.5 1021.5,-1013.5 1021.5,-1013.5 1027.5,-1013.5 1033.5,-1019.5 1033.5,-1025.5 1033.5,-1025.5 1033.5,-1238.5 1033.5,-1238.5 1033.5,-1244.5 1027.5,-1250.5 1021.5,-1250.5 1021.5,-1250.5 788.5,-1250.5 788.5,-1250.5 782.5,-1250.5 776.5,-1244.5 776.5,-1238.5 776.5,-1238.5 776.5,-1025.5 776.5,-1025.5 776.5,-1019.5 782.5,-1013.5 788.5,-1013.5"/>
<text text-anchor="middle" x="905" y="-1235.3" font-family="Times,serif" font-size="14.00" fill="#000000">name=%mul_4</text>
<polyline fill="none" stroke="black" points="776.5,-1227.5 1033.5,-1227.5 "/>
<text text-anchor="middle" x="905" y="-1212.3" font-family="Times,serif" font-size="14.00" fill="#000000">op_code=call_function</text>
<polyline fill="none" stroke="black" points="776.5,-1204.5 1033.5,-1204.5 "/>
<text text-anchor="middle" x="905" y="-1189.3" font-family="Times,serif" font-size="14.00" fill="#000000">target=torch.ops.aten.mul.Scalar</text>
<polyline fill="none" stroke="black" points="776.5,-1181.5 1033.5,-1181.5 "/>
<text text-anchor="start" x="784.5" y="-1166.3" font-family="Times,serif" font-size="14.00" fill="#000000">args=(</text>
<text text-anchor="middle" x="905" y="-1151.3" font-family="Times,serif" font-size="14.00" fill="#000000">4.0,</text>
<text text-anchor="start" x="784.5" y="-1136.3" font-family="Times,serif" font-size="14.00" fill="#000000">)</text>
<polyline fill="none" stroke="black" points="776.5,-1128.5 1033.5,-1128.5 "/>
<text text-anchor="middle" x="905" y="-1113.3" font-family="Times,serif" font-size="14.00" fill="#000000">num_users=1</text>
<polyline fill="none" stroke="black" points="776.5,-1105.5 1033.5,-1105.5 "/>
<text text-anchor="middle" x="905" y="-1090.3" font-family="Times,serif" font-size="14.00" fill="#000000">dtype=torch.float32</text>
<polyline fill="none" stroke="black" points="776.5,-1082.5 1033.5,-1082.5 "/>
<text text-anchor="middle" x="905" y="-1067.3" font-family="Times,serif" font-size="14.00" fill="#000000">shape=(10000, 10000)</text>
<polyline fill="none" stroke="black" points="776.5,-1059.5 1033.5,-1059.5 "/>
<text text-anchor="middle" x="905" y="-1044.3" font-family="Times,serif" font-size="14.00" fill="#000000">requires_grad=False</text>
<polyline fill="none" stroke="black" points="776.5,-1036.5 1033.5,-1036.5 "/>
<text text-anchor="middle" x="905" y="-1021.3" font-family="Times,serif" font-size="14.00" fill="#000000">stride=(10000, 1)</text>
</g>
<!-- pow_6&#45;&gt;mul_4 -->
<g id="edge16" class="edge">
<title>pow_6&#45;&gt;mul_4</title>
<path fill="none" stroke="black" d="M879.48,-1287.28C880.93,-1278.52 882.39,-1269.65 883.85,-1260.83"/>
<polygon fill="black" stroke="black" points="887.32,-1261.34 885.49,-1250.9 880.41,-1260.19 887.32,-1261.34"/>
</g>
<!-- mul_4&#45;&gt;mul_5 -->
<g id="edge17" class="edge">
<title>mul_4&#45;&gt;mul_5</title>
<path fill="none" stroke="black" d="M867.12,-1013.28C864.21,-1004.25 861.29,-995.17 858.42,-986.26"/>
<polygon fill="black" stroke="black" points="861.73,-985.11 855.33,-976.66 855.07,-987.25 861.73,-985.11"/>
</g>
<!-- mul_5&#45;&gt;add_5 -->
<g id="edge18" class="edge">
<title>mul_5&#45;&gt;add_5</title>
<path fill="none" stroke="black" d="M807.45,-792.34C784.42,-684.91 741.41,-501.82 687,-350 683.82,-341.14 680.26,-332.05 676.51,-323.01"/>
<polygon fill="black" stroke="black" points="679.65,-321.46 672.53,-313.61 673.21,-324.18 679.65,-321.46"/>
</g>
<!-- output -->
<g id="node15" class="node">
<title>output</title>
<path fill="PowderBlue" stroke="black" d="M573.5,-0.5C573.5,-0.5 682.5,-0.5 682.5,-0.5 688.5,-0.5 694.5,-6.5 694.5,-12.5 694.5,-12.5 694.5,-80.5 694.5,-80.5 694.5,-86.5 688.5,-92.5 682.5,-92.5 682.5,-92.5 573.5,-92.5 573.5,-92.5 567.5,-92.5 561.5,-86.5 561.5,-80.5 561.5,-80.5 561.5,-12.5 561.5,-12.5 561.5,-6.5 567.5,-0.5 573.5,-0.5"/>
<text text-anchor="middle" x="628" y="-77.3" font-family="Times,serif" font-size="14.00" fill="#000000">name=%output</text>
<polyline fill="none" stroke="black" points="561.5,-69.5 694.5,-69.5 "/>
<text text-anchor="middle" x="628" y="-54.3" font-family="Times,serif" font-size="14.00" fill="#000000">op_code=output</text>
<polyline fill="none" stroke="black" points="561.5,-46.5 694.5,-46.5 "/>
<text text-anchor="middle" x="628" y="-31.3" font-family="Times,serif" font-size="14.00" fill="#000000">target=output</text>
<polyline fill="none" stroke="black" points="561.5,-23.5 694.5,-23.5 "/>
<text text-anchor="middle" x="628" y="-8.3" font-family="Times,serif" font-size="14.00" fill="#000000">num_users=0</text>
</g>
<!-- add_5&#45;&gt;output -->
<g id="edge19" class="edge">
<title>add_5&#45;&gt;output</title>
<path fill="none" stroke="black" d="M628,-129.44C628,-120.41 628,-111.45 628,-102.95"/>
<polygon fill="black" stroke="black" points="631.5,-102.84 628,-92.84 624.5,-102.84 631.5,-102.84"/>
</g>
</g>
</svg>
