<?xml version="1.0" encoding="UTF-8" standalone="no"?>
<!DOCTYPE svg PUBLIC "-//W3C//DTD SVG 1.1//EN"
 "http://www.w3.org/Graphics/SVG/1.1/DTD/svg11.dtd">
<!-- Generated by graphviz version 2.43.0 (0)
 -->
<!-- Title: fn Pages: 1 -->
<svg width="513pt" height="852pt"
 viewBox="0.00 0.00 513.00 852.00" xmlns="http://www.w3.org/2000/svg" xmlns:xlink="http://www.w3.org/1999/xlink">
<g id="graph0" class="graph" transform="scale(1 1) rotate(0) translate(4 848)">
<title>fn</title>
<polygon fill="white" stroke="transparent" points="-4,4 -4,-848 509,-848 509,4 -4,4"/>
<!-- x -->
<g id="node1" class="node">
<title>x</title>
<path fill="AliceBlue" stroke="black" d="M267.5,-751.5C267.5,-751.5 412.5,-751.5 412.5,-751.5 418.5,-751.5 424.5,-757.5 424.5,-763.5 424.5,-763.5 424.5,-831.5 424.5,-831.5 424.5,-837.5 418.5,-843.5 412.5,-843.5 412.5,-843.5 267.5,-843.5 267.5,-843.5 261.5,-843.5 255.5,-837.5 255.5,-831.5 255.5,-831.5 255.5,-763.5 255.5,-763.5 255.5,-757.5 261.5,-751.5 267.5,-751.5"/>
<text text-anchor="middle" x="340" y="-828.3" font-family="Times,serif" font-size="14.00" fill="#000000">name=%x</text>
<polyline fill="none" stroke="black" points="255.5,-820.5 424.5,-820.5 "/>
<text text-anchor="middle" x="340" y="-805.3" font-family="Times,serif" font-size="14.00" fill="#000000">op_code=placeholder</text>
<polyline fill="none" stroke="black" points="255.5,-797.5 424.5,-797.5 "/>
<text text-anchor="middle" x="340" y="-782.3" font-family="Times,serif" font-size="14.00" fill="#000000">target=x</text>
<polyline fill="none" stroke="black" points="255.5,-774.5 424.5,-774.5 "/>
<text text-anchor="middle" x="340" y="-759.3" font-family="Times,serif" font-size="14.00" fill="#000000">num_users=4</text>
</g>
<!-- pow_1 -->
<g id="node2" class="node">
<title>pow_1</title>
<path fill="#ffe4e1" stroke="black" d="M12,-569.5C12,-569.5 164,-569.5 164,-569.5 170,-569.5 176,-575.5 176,-581.5 176,-581.5 176,-702.5 176,-702.5 176,-708.5 170,-714.5 164,-714.5 164,-714.5 12,-714.5 12,-714.5 6,-714.5 0,-708.5 0,-702.5 0,-702.5 0,-581.5 0,-581.5 0,-575.5 6,-569.5 12,-569.5"/>
<text text-anchor="middle" x="88" y="-699.3" font-family="Times,serif" font-size="14.00" fill="#000000">name=%pow_1</text>
<polyline fill="none" stroke="black" points="0,-691.5 176,-691.5 "/>
<text text-anchor="middle" x="88" y="-676.3" font-family="Times,serif" font-size="14.00" fill="#000000">op_code=call_function</text>
<polyline fill="none" stroke="black" points="0,-668.5 176,-668.5 "/>
<text text-anchor="middle" x="88" y="-653.3" font-family="Times,serif" font-size="14.00" fill="#000000">target=_operator.pow</text>
<polyline fill="none" stroke="black" points="0,-645.5 176,-645.5 "/>
<text text-anchor="start" x="8" y="-630.3" font-family="Times,serif" font-size="14.00" fill="#000000">args=(</text>
<text text-anchor="middle" x="88" y="-615.3" font-family="Times,serif" font-size="14.00" fill="#000000">4,</text>
<text text-anchor="start" x="8" y="-600.3" font-family="Times,serif" font-size="14.00" fill="#000000">)</text>
<polyline fill="none" stroke="black" points="0,-592.5 176,-592.5 "/>
<text text-anchor="middle" x="88" y="-577.3" font-family="Times,serif" font-size="14.00" fill="#000000">num_users=1</text>
</g>
<!-- x&#45;&gt;pow_1 -->
<g id="edge1" class="edge">
<title>x&#45;&gt;pow_1</title>
<path fill="none" stroke="black" d="M255.41,-755.04C232.18,-742.84 207.26,-729 185,-715 184.91,-714.94 184.82,-714.88 184.73,-714.83"/>
<polygon fill="black" stroke="black" points="186.45,-711.78 176.15,-709.3 182.66,-717.66 186.45,-711.78"/>
</g>
<!-- pow_2 -->
<g id="node3" class="node">
<title>pow_2</title>
<path fill="#ffe4e1" stroke="black" d="M206,-569.5C206,-569.5 358,-569.5 358,-569.5 364,-569.5 370,-575.5 370,-581.5 370,-581.5 370,-702.5 370,-702.5 370,-708.5 364,-714.5 358,-714.5 358,-714.5 206,-714.5 206,-714.5 200,-714.5 194,-708.5 194,-702.5 194,-702.5 194,-581.5 194,-581.5 194,-575.5 200,-569.5 206,-569.5"/>
<text text-anchor="middle" x="282" y="-699.3" font-family="Times,serif" font-size="14.00" fill="#000000">name=%pow_2</text>
<polyline fill="none" stroke="black" points="194,-691.5 370,-691.5 "/>
<text text-anchor="middle" x="282" y="-676.3" font-family="Times,serif" font-size="14.00" fill="#000000">op_code=call_function</text>
<polyline fill="none" stroke="black" points="194,-668.5 370,-668.5 "/>
<text text-anchor="middle" x="282" y="-653.3" font-family="Times,serif" font-size="14.00" fill="#000000">target=_operator.pow</text>
<polyline fill="none" stroke="black" points="194,-645.5 370,-645.5 "/>
<text text-anchor="start" x="202" y="-630.3" font-family="Times,serif" font-size="14.00" fill="#000000">args=(</text>
<text text-anchor="middle" x="282" y="-615.3" font-family="Times,serif" font-size="14.00" fill="#000000">3,</text>
<text text-anchor="start" x="202" y="-600.3" font-family="Times,serif" font-size="14.00" fill="#000000">)</text>
<polyline fill="none" stroke="black" points="194,-592.5 370,-592.5 "/>
<text text-anchor="middle" x="282" y="-577.3" font-family="Times,serif" font-size="14.00" fill="#000000">num_users=1</text>
</g>
<!-- x&#45;&gt;pow_2 -->
<g id="edge2" class="edge">
<title>x&#45;&gt;pow_2</title>
<path fill="none" stroke="black" d="M322.91,-751.28C319.65,-742.65 316.15,-733.39 312.62,-724.04"/>
<polygon fill="black" stroke="black" points="315.89,-722.8 309.08,-714.68 309.34,-725.27 315.89,-722.8"/>
</g>
<!-- pow_3 -->
<g id="node5" class="node">
<title>pow_3</title>
<path fill="#ffe4e1" stroke="black" d="M283,-387.5C283,-387.5 435,-387.5 435,-387.5 441,-387.5 447,-393.5 447,-399.5 447,-399.5 447,-520.5 447,-520.5 447,-526.5 441,-532.5 435,-532.5 435,-532.5 283,-532.5 283,-532.5 277,-532.5 271,-526.5 271,-520.5 271,-520.5 271,-399.5 271,-399.5 271,-393.5 277,-387.5 283,-387.5"/>
<text text-anchor="middle" x="359" y="-517.3" font-family="Times,serif" font-size="14.00" fill="#000000">name=%pow_3</text>
<polyline fill="none" stroke="black" points="271,-509.5 447,-509.5 "/>
<text text-anchor="middle" x="359" y="-494.3" font-family="Times,serif" font-size="14.00" fill="#000000">op_code=call_function</text>
<polyline fill="none" stroke="black" points="271,-486.5 447,-486.5 "/>
<text text-anchor="middle" x="359" y="-471.3" font-family="Times,serif" font-size="14.00" fill="#000000">target=_operator.pow</text>
<polyline fill="none" stroke="black" points="271,-463.5 447,-463.5 "/>
<text text-anchor="start" x="279" y="-448.3" font-family="Times,serif" font-size="14.00" fill="#000000">args=(</text>
<text text-anchor="middle" x="359" y="-433.3" font-family="Times,serif" font-size="14.00" fill="#000000">2,</text>
<text text-anchor="start" x="279" y="-418.3" font-family="Times,serif" font-size="14.00" fill="#000000">)</text>
<polyline fill="none" stroke="black" points="271,-410.5 447,-410.5 "/>
<text text-anchor="middle" x="359" y="-395.3" font-family="Times,serif" font-size="14.00" fill="#000000">num_users=1</text>
</g>
<!-- x&#45;&gt;pow_3 -->
<g id="edge3" class="edge">
<title>x&#45;&gt;pow_3</title>
<path fill="none" stroke="black" d="M366.02,-751.26C371.37,-739.79 376.22,-727.24 379,-715 391.84,-658.4 386.27,-593.09 377.78,-542.88"/>
<polygon fill="black" stroke="black" points="381.17,-541.96 375.99,-532.72 374.28,-543.17 381.17,-541.96"/>
</g>
<!-- add_2 -->
<g id="node7" class="node">
<title>add_2</title>
<path fill="#ffe7ba" stroke="black" d="M341,-129.5C341,-129.5 493,-129.5 493,-129.5 499,-129.5 505,-135.5 505,-141.5 505,-141.5 505,-209.5 505,-209.5 505,-215.5 499,-221.5 493,-221.5 493,-221.5 341,-221.5 341,-221.5 335,-221.5 329,-215.5 329,-209.5 329,-209.5 329,-141.5 329,-141.5 329,-135.5 335,-129.5 341,-129.5"/>
<text text-anchor="middle" x="417" y="-206.3" font-family="Times,serif" font-size="14.00" fill="#000000">name=%add_2</text>
<polyline fill="none" stroke="black" points="329,-198.5 505,-198.5 "/>
<text text-anchor="middle" x="417" y="-183.3" font-family="Times,serif" font-size="14.00" fill="#000000">op_code=call_function</text>
<polyline fill="none" stroke="black" points="329,-175.5 505,-175.5 "/>
<text text-anchor="middle" x="417" y="-160.3" font-family="Times,serif" font-size="14.00" fill="#000000">target=_operator.add</text>
<polyline fill="none" stroke="black" points="329,-152.5 505,-152.5 "/>
<text text-anchor="middle" x="417" y="-137.3" font-family="Times,serif" font-size="14.00" fill="#000000">num_users=1</text>
</g>
<!-- x&#45;&gt;add_2 -->
<g id="edge4" class="edge">
<title>x&#45;&gt;add_2</title>
<path fill="none" stroke="black" d="M374.36,-751.35C382.14,-739.88 389.9,-727.3 396,-715 433.83,-638.69 442.5,-617.09 456,-533 475.38,-412.32 483.05,-377.19 456,-258 453.96,-249.01 450.8,-239.86 447.15,-231.09"/>
<polygon fill="black" stroke="black" points="450.26,-229.47 443.02,-221.74 443.86,-232.31 450.26,-229.47"/>
</g>
<!-- add -->
<g id="node4" class="node">
<title>add</title>
<path fill="#ffe7ba" stroke="black" d="M89,-414C89,-414 241,-414 241,-414 247,-414 253,-420 253,-426 253,-426 253,-494 253,-494 253,-500 247,-506 241,-506 241,-506 89,-506 89,-506 83,-506 77,-500 77,-494 77,-494 77,-426 77,-426 77,-420 83,-414 89,-414"/>
<text text-anchor="middle" x="165" y="-490.8" font-family="Times,serif" font-size="14.00" fill="#000000">name=%add</text>
<polyline fill="none" stroke="black" points="77,-483 253,-483 "/>
<text text-anchor="middle" x="165" y="-467.8" font-family="Times,serif" font-size="14.00" fill="#000000">op_code=call_function</text>
<polyline fill="none" stroke="black" points="77,-460 253,-460 "/>
<text text-anchor="middle" x="165" y="-444.8" font-family="Times,serif" font-size="14.00" fill="#000000">target=_operator.add</text>
<polyline fill="none" stroke="black" points="77,-437 253,-437 "/>
<text text-anchor="middle" x="165" y="-421.8" font-family="Times,serif" font-size="14.00" fill="#000000">num_users=1</text>
</g>
<!-- pow_1&#45;&gt;add -->
<g id="edge5" class="edge">
<title>pow_1&#45;&gt;add</title>
<path fill="none" stroke="black" d="M118.65,-569.34C126.37,-551.31 134.52,-532.25 141.8,-515.23"/>
<polygon fill="black" stroke="black" points="145.03,-516.57 145.75,-506 138.6,-513.82 145.03,-516.57"/>
</g>
<!-- pow_2&#45;&gt;add -->
<g id="edge6" class="edge">
<title>pow_2&#45;&gt;add</title>
<path fill="none" stroke="black" d="M235.42,-569.34C223.59,-551.14 211.08,-531.9 199.94,-514.76"/>
<polygon fill="black" stroke="black" points="202.64,-512.48 194.25,-506 196.77,-516.29 202.64,-512.48"/>
</g>
<!-- add_1 -->
<g id="node6" class="node">
<title>add_1</title>
<path fill="#ffe7ba" stroke="black" d="M283,-258.5C283,-258.5 435,-258.5 435,-258.5 441,-258.5 447,-264.5 447,-270.5 447,-270.5 447,-338.5 447,-338.5 447,-344.5 441,-350.5 435,-350.5 435,-350.5 283,-350.5 283,-350.5 277,-350.5 271,-344.5 271,-338.5 271,-338.5 271,-270.5 271,-270.5 271,-264.5 277,-258.5 283,-258.5"/>
<text text-anchor="middle" x="359" y="-335.3" font-family="Times,serif" font-size="14.00" fill="#000000">name=%add_1</text>
<polyline fill="none" stroke="black" points="271,-327.5 447,-327.5 "/>
<text text-anchor="middle" x="359" y="-312.3" font-family="Times,serif" font-size="14.00" fill="#000000">op_code=call_function</text>
<polyline fill="none" stroke="black" points="271,-304.5 447,-304.5 "/>
<text text-anchor="middle" x="359" y="-289.3" font-family="Times,serif" font-size="14.00" fill="#000000">target=_operator.add</text>
<polyline fill="none" stroke="black" points="271,-281.5 447,-281.5 "/>
<text text-anchor="middle" x="359" y="-266.3" font-family="Times,serif" font-size="14.00" fill="#000000">num_users=1</text>
</g>
<!-- add&#45;&gt;add_1 -->
<g id="edge7" class="edge">
<title>add&#45;&gt;add_1</title>
<path fill="none" stroke="black" d="M221.9,-413.98C244.5,-396.1 270.63,-375.42 293.97,-356.95"/>
<polygon fill="black" stroke="black" points="296.44,-359.47 302.11,-350.52 292.09,-353.98 296.44,-359.47"/>
</g>
<!-- pow_3&#45;&gt;add_1 -->
<g id="edge8" class="edge">
<title>pow_3&#45;&gt;add_1</title>
<path fill="none" stroke="black" d="M359,-387.19C359,-378.32 359,-369.35 359,-360.78"/>
<polygon fill="black" stroke="black" points="362.5,-360.54 359,-350.54 355.5,-360.54 362.5,-360.54"/>
</g>
<!-- add_1&#45;&gt;add_2 -->
<g id="edge9" class="edge">
<title>add_1&#45;&gt;add_2</title>
<path fill="none" stroke="black" d="M379.61,-258.37C383.62,-249.58 387.87,-240.29 392,-231.23"/>
<polygon fill="black" stroke="black" points="395.29,-232.47 396.26,-221.92 388.92,-229.56 395.29,-232.47"/>
</g>
<!-- output -->
<g id="node8" class="node">
<title>output</title>
<path fill="PowderBlue" stroke="black" d="M362.5,-0.5C362.5,-0.5 471.5,-0.5 471.5,-0.5 477.5,-0.5 483.5,-6.5 483.5,-12.5 483.5,-12.5 483.5,-80.5 483.5,-80.5 483.5,-86.5 477.5,-92.5 471.5,-92.5 471.5,-92.5 362.5,-92.5 362.5,-92.5 356.5,-92.5 350.5,-86.5 350.5,-80.5 350.5,-80.5 350.5,-12.5 350.5,-12.5 350.5,-6.5 356.5,-0.5 362.5,-0.5"/>
<text text-anchor="middle" x="417" y="-77.3" font-family="Times,serif" font-size="14.00" fill="#000000">name=%output</text>
<polyline fill="none" stroke="black" points="350.5,-69.5 483.5,-69.5 "/>
<text text-anchor="middle" x="417" y="-54.3" font-family="Times,serif" font-size="14.00" fill="#000000">op_code=output</text>
<polyline fill="none" stroke="black" points="350.5,-46.5 483.5,-46.5 "/>
<text text-anchor="middle" x="417" y="-31.3" font-family="Times,serif" font-size="14.00" fill="#000000">target=output</text>
<polyline fill="none" stroke="black" points="350.5,-23.5 483.5,-23.5 "/>
<text text-anchor="middle" x="417" y="-8.3" font-family="Times,serif" font-size="14.00" fill="#000000">num_users=0</text>
</g>
<!-- add_2&#45;&gt;output -->
<g id="edge10" class="edge">
<title>add_2&#45;&gt;output</title>
<path fill="none" stroke="black" d="M417,-129.37C417,-120.86 417,-111.87 417,-103.09"/>
<polygon fill="black" stroke="black" points="420.5,-102.92 417,-92.92 413.5,-102.92 420.5,-102.92"/>
</g>
</g>
</svg>
