<?xml version="1.0" encoding="UTF-8" standalone="no"?>
<!DOCTYPE svg PUBLIC "-//W3C//DTD SVG 1.1//EN"
 "http://www.w3.org/Graphics/SVG/1.1/DTD/svg11.dtd">
<!-- Generated by graphviz version 2.43.0 (0)
 -->
<!-- Title: fn Pages: 1 -->
<svg width="513pt" height="981pt"
 viewBox="0.00 0.00 513.00 981.00" xmlns="http://www.w3.org/2000/svg" xmlns:xlink="http://www.w3.org/1999/xlink">
<g id="graph0" class="graph" transform="scale(1 1) rotate(0) translate(4 977)">
<title>fn</title>
<polygon fill="white" stroke="transparent" points="-4,4 -4,-977 509,-977 509,4 -4,4"/>
<!-- x -->
<g id="node1" class="node">
<title>x</title>
<path fill="AliceBlue" stroke="black" d="M267.5,-880.5C267.5,-880.5 412.5,-880.5 412.5,-880.5 418.5,-880.5 424.5,-886.5 424.5,-892.5 424.5,-892.5 424.5,-960.5 424.5,-960.5 424.5,-966.5 418.5,-972.5 412.5,-972.5 412.5,-972.5 267.5,-972.5 267.5,-972.5 261.5,-972.5 255.5,-966.5 255.5,-960.5 255.5,-960.5 255.5,-892.5 255.5,-892.5 255.5,-886.5 261.5,-880.5 267.5,-880.5"/>
<text text-anchor="middle" x="340" y="-957.3" font-family="Times,serif" font-size="14.00" fill="#000000">name=%x</text>
<polyline fill="none" stroke="black" points="255.5,-949.5 424.5,-949.5 "/>
<text text-anchor="middle" x="340" y="-934.3" font-family="Times,serif" font-size="14.00" fill="#000000">op_code=placeholder</text>
<polyline fill="none" stroke="black" points="255.5,-926.5 424.5,-926.5 "/>
<text text-anchor="middle" x="340" y="-911.3" font-family="Times,serif" font-size="14.00" fill="#000000">target=x</text>
<polyline fill="none" stroke="black" points="255.5,-903.5 424.5,-903.5 "/>
<text text-anchor="middle" x="340" y="-888.3" font-family="Times,serif" font-size="14.00" fill="#000000">num_users=4</text>
</g>
<!-- pow_1 -->
<g id="node2" class="node">
<title>pow_1</title>
<path fill="#ffe4e1" stroke="black" d="M12,-698.5C12,-698.5 164,-698.5 164,-698.5 170,-698.5 176,-704.5 176,-710.5 176,-710.5 176,-831.5 176,-831.5 176,-837.5 170,-843.5 164,-843.5 164,-843.5 12,-843.5 12,-843.5 6,-843.5 0,-837.5 0,-831.5 0,-831.5 0,-710.5 0,-710.5 0,-704.5 6,-698.5 12,-698.5"/>
<text text-anchor="middle" x="88" y="-828.3" font-family="Times,serif" font-size="14.00" fill="#000000">name=%pow_1</text>
<polyline fill="none" stroke="black" points="0,-820.5 176,-820.5 "/>
<text text-anchor="middle" x="88" y="-805.3" font-family="Times,serif" font-size="14.00" fill="#000000">op_code=call_function</text>
<polyline fill="none" stroke="black" points="0,-797.5 176,-797.5 "/>
<text text-anchor="middle" x="88" y="-782.3" font-family="Times,serif" font-size="14.00" fill="#000000">target=_operator.pow</text>
<polyline fill="none" stroke="black" points="0,-774.5 176,-774.5 "/>
<text text-anchor="start" x="8" y="-759.3" font-family="Times,serif" font-size="14.00" fill="#000000">args=(</text>
<text text-anchor="middle" x="88" y="-744.3" font-family="Times,serif" font-size="14.00" fill="#000000">4,</text>
<text text-anchor="start" x="8" y="-729.3" font-family="Times,serif" font-size="14.00" fill="#000000">)</text>
<polyline fill="none" stroke="black" points="0,-721.5 176,-721.5 "/>
<text text-anchor="middle" x="88" y="-706.3" font-family="Times,serif" font-size="14.00" fill="#000000">num_users=1</text>
</g>
<!-- x&#45;&gt;pow_1 -->
<g id="edge1" class="edge">
<title>x&#45;&gt;pow_1</title>
<path fill="none" stroke="black" d="M255.41,-884.04C232.18,-871.84 207.26,-858 185,-844 184.91,-843.94 184.82,-843.88 184.73,-843.83"/>
<polygon fill="black" stroke="black" points="186.45,-840.78 176.15,-838.3 182.66,-846.66 186.45,-840.78"/>
</g>
<!-- pow_2 -->
<g id="node3" class="node">
<title>pow_2</title>
<path fill="#ffe4e1" stroke="black" d="M206,-698.5C206,-698.5 358,-698.5 358,-698.5 364,-698.5 370,-704.5 370,-710.5 370,-710.5 370,-831.5 370,-831.5 370,-837.5 364,-843.5 358,-843.5 358,-843.5 206,-843.5 206,-843.5 200,-843.5 194,-837.5 194,-831.5 194,-831.5 194,-710.5 194,-710.5 194,-704.5 200,-698.5 206,-698.5"/>
<text text-anchor="middle" x="282" y="-828.3" font-family="Times,serif" font-size="14.00" fill="#000000">name=%pow_2</text>
<polyline fill="none" stroke="black" points="194,-820.5 370,-820.5 "/>
<text text-anchor="middle" x="282" y="-805.3" font-family="Times,serif" font-size="14.00" fill="#000000">op_code=call_function</text>
<polyline fill="none" stroke="black" points="194,-797.5 370,-797.5 "/>
<text text-anchor="middle" x="282" y="-782.3" font-family="Times,serif" font-size="14.00" fill="#000000">target=_operator.pow</text>
<polyline fill="none" stroke="black" points="194,-774.5 370,-774.5 "/>
<text text-anchor="start" x="202" y="-759.3" font-family="Times,serif" font-size="14.00" fill="#000000">args=(</text>
<text text-anchor="middle" x="282" y="-744.3" font-family="Times,serif" font-size="14.00" fill="#000000">3,</text>
<text text-anchor="start" x="202" y="-729.3" font-family="Times,serif" font-size="14.00" fill="#000000">)</text>
<polyline fill="none" stroke="black" points="194,-721.5 370,-721.5 "/>
<text text-anchor="middle" x="282" y="-706.3" font-family="Times,serif" font-size="14.00" fill="#000000">num_users=1</text>
</g>
<!-- x&#45;&gt;pow_2 -->
<g id="edge2" class="edge">
<title>x&#45;&gt;pow_2</title>
<path fill="none" stroke="black" d="M322.91,-880.28C319.65,-871.65 316.15,-862.39 312.62,-853.04"/>
<polygon fill="black" stroke="black" points="315.89,-851.8 309.08,-843.68 309.34,-854.27 315.89,-851.8"/>
</g>
<!-- pow_3 -->
<g id="node5" class="node">
<title>pow_3</title>
<path fill="#ffe4e1" stroke="black" d="M283,-516.5C283,-516.5 435,-516.5 435,-516.5 441,-516.5 447,-522.5 447,-528.5 447,-528.5 447,-649.5 447,-649.5 447,-655.5 441,-661.5 435,-661.5 435,-661.5 283,-661.5 283,-661.5 277,-661.5 271,-655.5 271,-649.5 271,-649.5 271,-528.5 271,-528.5 271,-522.5 277,-516.5 283,-516.5"/>
<text text-anchor="middle" x="359" y="-646.3" font-family="Times,serif" font-size="14.00" fill="#000000">name=%pow_3</text>
<polyline fill="none" stroke="black" points="271,-638.5 447,-638.5 "/>
<text text-anchor="middle" x="359" y="-623.3" font-family="Times,serif" font-size="14.00" fill="#000000">op_code=call_function</text>
<polyline fill="none" stroke="black" points="271,-615.5 447,-615.5 "/>
<text text-anchor="middle" x="359" y="-600.3" font-family="Times,serif" font-size="14.00" fill="#000000">target=_operator.pow</text>
<polyline fill="none" stroke="black" points="271,-592.5 447,-592.5 "/>
<text text-anchor="start" x="279" y="-577.3" font-family="Times,serif" font-size="14.00" fill="#000000">args=(</text>
<text text-anchor="middle" x="359" y="-562.3" font-family="Times,serif" font-size="14.00" fill="#000000">2,</text>
<text text-anchor="start" x="279" y="-547.3" font-family="Times,serif" font-size="14.00" fill="#000000">)</text>
<polyline fill="none" stroke="black" points="271,-539.5 447,-539.5 "/>
<text text-anchor="middle" x="359" y="-524.3" font-family="Times,serif" font-size="14.00" fill="#000000">num_users=1</text>
</g>
<!-- x&#45;&gt;pow_3 -->
<g id="edge3" class="edge">
<title>x&#45;&gt;pow_3</title>
<path fill="none" stroke="black" d="M366.02,-880.26C371.37,-868.79 376.22,-856.24 379,-844 391.84,-787.4 386.27,-722.09 377.78,-671.88"/>
<polygon fill="black" stroke="black" points="381.17,-670.96 375.99,-661.72 374.28,-672.17 381.17,-670.96"/>
</g>
<!-- add_2 -->
<g id="node7" class="node">
<title>add_2</title>
<path fill="#ffe7ba" stroke="black" d="M341,-258.5C341,-258.5 493,-258.5 493,-258.5 499,-258.5 505,-264.5 505,-270.5 505,-270.5 505,-338.5 505,-338.5 505,-344.5 499,-350.5 493,-350.5 493,-350.5 341,-350.5 341,-350.5 335,-350.5 329,-344.5 329,-338.5 329,-338.5 329,-270.5 329,-270.5 329,-264.5 335,-258.5 341,-258.5"/>
<text text-anchor="middle" x="417" y="-335.3" font-family="Times,serif" font-size="14.00" fill="#000000">name=%add_2</text>
<polyline fill="none" stroke="black" points="329,-327.5 505,-327.5 "/>
<text text-anchor="middle" x="417" y="-312.3" font-family="Times,serif" font-size="14.00" fill="#000000">op_code=call_function</text>
<polyline fill="none" stroke="black" points="329,-304.5 505,-304.5 "/>
<text text-anchor="middle" x="417" y="-289.3" font-family="Times,serif" font-size="14.00" fill="#000000">target=_operator.add</text>
<polyline fill="none" stroke="black" points="329,-281.5 505,-281.5 "/>
<text text-anchor="middle" x="417" y="-266.3" font-family="Times,serif" font-size="14.00" fill="#000000">num_users=1</text>
</g>
<!-- x&#45;&gt;add_2 -->
<g id="edge4" class="edge">
<title>x&#45;&gt;add_2</title>
<path fill="none" stroke="black" d="M374.36,-880.35C382.14,-868.88 389.9,-856.3 396,-844 433.83,-767.69 442.5,-746.09 456,-662 475.38,-541.32 483.05,-506.19 456,-387 453.96,-378.01 450.8,-368.86 447.15,-360.09"/>
<polygon fill="black" stroke="black" points="450.26,-358.47 443.02,-350.74 443.86,-361.31 450.26,-358.47"/>
</g>
<!-- add -->
<g id="node4" class="node">
<title>add</title>
<path fill="#ffe7ba" stroke="black" d="M89,-543C89,-543 241,-543 241,-543 247,-543 253,-549 253,-555 253,-555 253,-623 253,-623 253,-629 247,-635 241,-635 241,-635 89,-635 89,-635 83,-635 77,-629 77,-623 77,-623 77,-555 77,-555 77,-549 83,-543 89,-543"/>
<text text-anchor="middle" x="165" y="-619.8" font-family="Times,serif" font-size="14.00" fill="#000000">name=%add</text>
<polyline fill="none" stroke="black" points="77,-612 253,-612 "/>
<text text-anchor="middle" x="165" y="-596.8" font-family="Times,serif" font-size="14.00" fill="#000000">op_code=call_function</text>
<polyline fill="none" stroke="black" points="77,-589 253,-589 "/>
<text text-anchor="middle" x="165" y="-573.8" font-family="Times,serif" font-size="14.00" fill="#000000">target=_operator.add</text>
<polyline fill="none" stroke="black" points="77,-566 253,-566 "/>
<text text-anchor="middle" x="165" y="-550.8" font-family="Times,serif" font-size="14.00" fill="#000000">num_users=1</text>
</g>
<!-- pow_1&#45;&gt;add -->
<g id="edge5" class="edge">
<title>pow_1&#45;&gt;add</title>
<path fill="none" stroke="black" d="M118.65,-698.34C126.37,-680.31 134.52,-661.25 141.8,-644.23"/>
<polygon fill="black" stroke="black" points="145.03,-645.57 145.75,-635 138.6,-642.82 145.03,-645.57"/>
</g>
<!-- pow_2&#45;&gt;add -->
<g id="edge6" class="edge">
<title>pow_2&#45;&gt;add</title>
<path fill="none" stroke="black" d="M235.42,-698.34C223.59,-680.14 211.08,-660.9 199.94,-643.76"/>
<polygon fill="black" stroke="black" points="202.64,-641.48 194.25,-635 196.77,-645.29 202.64,-641.48"/>
</g>
<!-- add_1 -->
<g id="node6" class="node">
<title>add_1</title>
<path fill="#ffe7ba" stroke="black" d="M283,-387.5C283,-387.5 435,-387.5 435,-387.5 441,-387.5 447,-393.5 447,-399.5 447,-399.5 447,-467.5 447,-467.5 447,-473.5 441,-479.5 435,-479.5 435,-479.5 283,-479.5 283,-479.5 277,-479.5 271,-473.5 271,-467.5 271,-467.5 271,-399.5 271,-399.5 271,-393.5 277,-387.5 283,-387.5"/>
<text text-anchor="middle" x="359" y="-464.3" font-family="Times,serif" font-size="14.00" fill="#000000">name=%add_1</text>
<polyline fill="none" stroke="black" points="271,-456.5 447,-456.5 "/>
<text text-anchor="middle" x="359" y="-441.3" font-family="Times,serif" font-size="14.00" fill="#000000">op_code=call_function</text>
<polyline fill="none" stroke="black" points="271,-433.5 447,-433.5 "/>
<text text-anchor="middle" x="359" y="-418.3" font-family="Times,serif" font-size="14.00" fill="#000000">target=_operator.add</text>
<polyline fill="none" stroke="black" points="271,-410.5 447,-410.5 "/>
<text text-anchor="middle" x="359" y="-395.3" font-family="Times,serif" font-size="14.00" fill="#000000">num_users=1</text>
</g>
<!-- add&#45;&gt;add_1 -->
<g id="edge7" class="edge">
<title>add&#45;&gt;add_1</title>
<path fill="none" stroke="black" d="M221.9,-542.98C244.5,-525.1 270.63,-504.42 293.97,-485.95"/>
<polygon fill="black" stroke="black" points="296.44,-488.47 302.11,-479.52 292.09,-482.98 296.44,-488.47"/>
</g>
<!-- pow_3&#45;&gt;add_1 -->
<g id="edge8" class="edge">
<title>pow_3&#45;&gt;add_1</title>
<path fill="none" stroke="black" d="M359,-516.19C359,-507.32 359,-498.35 359,-489.78"/>
<polygon fill="black" stroke="black" points="362.5,-489.54 359,-479.54 355.5,-489.54 362.5,-489.54"/>
</g>
<!-- add_1&#45;&gt;add_2 -->
<g id="edge9" class="edge">
<title>add_1&#45;&gt;add_2</title>
<path fill="none" stroke="black" d="M379.61,-387.37C383.62,-378.58 387.87,-369.29 392,-360.23"/>
<polygon fill="black" stroke="black" points="395.29,-361.47 396.26,-350.92 388.92,-358.56 395.29,-361.47"/>
</g>
<!-- exp -->
<g id="node8" class="node">
<title>exp</title>
<path fill="GhostWhite" stroke="black" d="M341,-129.5C341,-129.5 493,-129.5 493,-129.5 499,-129.5 505,-135.5 505,-141.5 505,-141.5 505,-209.5 505,-209.5 505,-215.5 499,-221.5 493,-221.5 493,-221.5 341,-221.5 341,-221.5 335,-221.5 329,-215.5 329,-209.5 329,-209.5 329,-141.5 329,-141.5 329,-135.5 335,-129.5 341,-129.5"/>
<text text-anchor="middle" x="417" y="-206.3" font-family="Times,serif" font-size="14.00" fill="#000000">name=%exp</text>
<polyline fill="none" stroke="black" points="329,-198.5 505,-198.5 "/>
<text text-anchor="middle" x="417" y="-183.3" font-family="Times,serif" font-size="14.00" fill="#000000">op_code=call_function</text>
<polyline fill="none" stroke="black" points="329,-175.5 505,-175.5 "/>
<text text-anchor="middle" x="417" y="-160.3" font-family="Times,serif" font-size="14.00" fill="#000000">target=torch.exp</text>
<polyline fill="none" stroke="black" points="329,-152.5 505,-152.5 "/>
<text text-anchor="middle" x="417" y="-137.3" font-family="Times,serif" font-size="14.00" fill="#000000">num_users=1</text>
</g>
<!-- add_2&#45;&gt;exp -->
<g id="edge10" class="edge">
<title>add_2&#45;&gt;exp</title>
<path fill="none" stroke="black" d="M417,-258.37C417,-249.86 417,-240.87 417,-232.09"/>
<polygon fill="black" stroke="black" points="420.5,-231.92 417,-221.92 413.5,-231.92 420.5,-231.92"/>
</g>
<!-- output -->
<g id="node9" class="node">
<title>output</title>
<path fill="PowderBlue" stroke="black" d="M362.5,-0.5C362.5,-0.5 471.5,-0.5 471.5,-0.5 477.5,-0.5 483.5,-6.5 483.5,-12.5 483.5,-12.5 483.5,-80.5 483.5,-80.5 483.5,-86.5 477.5,-92.5 471.5,-92.5 471.5,-92.5 362.5,-92.5 362.5,-92.5 356.5,-92.5 350.5,-86.5 350.5,-80.5 350.5,-80.5 350.5,-12.5 350.5,-12.5 350.5,-6.5 356.5,-0.5 362.5,-0.5"/>
<text text-anchor="middle" x="417" y="-77.3" font-family="Times,serif" font-size="14.00" fill="#000000">name=%output</text>
<polyline fill="none" stroke="black" points="350.5,-69.5 483.5,-69.5 "/>
<text text-anchor="middle" x="417" y="-54.3" font-family="Times,serif" font-size="14.00" fill="#000000">op_code=output</text>
<polyline fill="none" stroke="black" points="350.5,-46.5 483.5,-46.5 "/>
<text text-anchor="middle" x="417" y="-31.3" font-family="Times,serif" font-size="14.00" fill="#000000">target=output</text>
<polyline fill="none" stroke="black" points="350.5,-23.5 483.5,-23.5 "/>
<text text-anchor="middle" x="417" y="-8.3" font-family="Times,serif" font-size="14.00" fill="#000000">num_users=0</text>
</g>
<!-- exp&#45;&gt;output -->
<g id="edge11" class="edge">
<title>exp&#45;&gt;output</title>
<path fill="none" stroke="black" d="M417,-129.37C417,-120.86 417,-111.87 417,-103.09"/>
<polygon fill="black" stroke="black" points="420.5,-102.92 417,-92.92 413.5,-102.92 420.5,-102.92"/>
</g>
</g>
</svg>
