<?xml version="1.0" encoding="UTF-8" standalone="no"?>
<!DOCTYPE svg PUBLIC "-//W3C//DTD SVG 1.1//EN"
 "http://www.w3.org/Graphics/SVG/1.1/DTD/svg11.dtd">
<!-- Generated by graphviz version 2.40.1 (20161225.0304)
 -->
<!-- Title: fn Pages: 1 -->
<svg width="879pt" height="669pt"
 viewBox="0.00 0.00 879.00 669.00" xmlns="http://www.w3.org/2000/svg" xmlns:xlink="http://www.w3.org/1999/xlink">
<g id="graph0" class="graph" transform="scale(1 1) rotate(0) translate(4 665)">
<title>fn</title>
<polygon fill="#ffffff" stroke="transparent" points="-4,4 -4,-665 875,-665 875,4 -4,4"/>
<!-- x -->
<g id="node1" class="node">
<title>x</title>
<path fill="#f0f8ff" stroke="#000000" d="M12,-568.5C12,-568.5 159,-568.5 159,-568.5 165,-568.5 171,-574.5 171,-580.5 171,-580.5 171,-648.5 171,-648.5 171,-654.5 165,-660.5 159,-660.5 159,-660.5 12,-660.5 12,-660.5 6,-660.5 0,-654.5 0,-648.5 0,-648.5 0,-580.5 0,-580.5 0,-574.5 6,-568.5 12,-568.5"/>
<text text-anchor="middle" x="85.5" y="-645.3" font-family="Times,serif" font-size="14.00" fill="#000000">name=%x</text>
<polyline fill="none" stroke="#000000" points="0,-637.5 171,-637.5 "/>
<text text-anchor="middle" x="85.5" y="-622.3" font-family="Times,serif" font-size="14.00" fill="#000000">op_code=placeholder</text>
<polyline fill="none" stroke="#000000" points="0,-614.5 171,-614.5 "/>
<text text-anchor="middle" x="85.5" y="-599.3" font-family="Times,serif" font-size="14.00" fill="#000000">target=x</text>
<polyline fill="none" stroke="#000000" points="0,-591.5 171,-591.5 "/>
<text text-anchor="middle" x="85.5" y="-576.3" font-family="Times,serif" font-size="14.00" fill="#000000">num_users=1</text>
</g>
<!-- conv -->
<g id="node2" class="node">
<title>conv</title>
<path fill="#fffacd" stroke="#000000" d="M261.5,-311.5C261.5,-311.5 475.5,-311.5 475.5,-311.5 481.5,-311.5 487.5,-317.5 487.5,-323.5 487.5,-323.5 487.5,-519.5 487.5,-519.5 487.5,-525.5 481.5,-531.5 475.5,-531.5 475.5,-531.5 261.5,-531.5 261.5,-531.5 255.5,-531.5 249.5,-525.5 249.5,-519.5 249.5,-519.5 249.5,-323.5 249.5,-323.5 249.5,-317.5 255.5,-311.5 261.5,-311.5"/>
<text text-anchor="middle" x="368.5" y="-516.3" font-family="Times,serif" font-size="14.00" fill="#000000">name=%conv</text>
<polyline fill="none" stroke="#000000" points="249.5,-508.5 487.5,-508.5 "/>
<text text-anchor="middle" x="368.5" y="-493.3" font-family="Times,serif" font-size="14.00" fill="#000000">op_code=call_module</text>
<text text-anchor="middle" x="368.5" y="-462.3" font-family="Times,serif" font-size="14.00" fill="#000000">torch.nn.modules.conv.Conv2d</text>
<polyline fill="none" stroke="#000000" points="249.5,-454.5 487.5,-454.5 "/>
<text text-anchor="middle" x="368.5" y="-439.3" font-family="Times,serif" font-size="14.00" fill="#000000">stride: (1, 1)</text>
<text text-anchor="middle" x="368.5" y="-424.3" font-family="Times,serif" font-size="14.00" fill="#000000">padding: (0, 0)</text>
<text text-anchor="middle" x="368.5" y="-409.3" font-family="Times,serif" font-size="14.00" fill="#000000">dilation: (1, 1)</text>
<text text-anchor="middle" x="368.5" y="-394.3" font-family="Times,serif" font-size="14.00" fill="#000000">groups: 1</text>
<text text-anchor="middle" x="368.5" y="-379.3" font-family="Times,serif" font-size="14.00" fill="#000000">padding_mode: zeros</text>
<text text-anchor="middle" x="368.5" y="-364.3" font-family="Times,serif" font-size="14.00" fill="#000000">output_padding: (0, 0)</text>
<text text-anchor="middle" x="368.5" y="-349.3" font-family="Times,serif" font-size="14.00" fill="#000000">in_channels: 1</text>
<text text-anchor="middle" x="368.5" y="-334.3" font-family="Times,serif" font-size="14.00" fill="#000000">out_channels: 6</text>
<text text-anchor="middle" x="368.5" y="-319.3" font-family="Times,serif" font-size="14.00" fill="#000000">kernel_size: (5, 5)</text>
</g>
<!-- x&#45;&gt;conv -->
<g id="edge3" class="edge">
<title>x&#45;&gt;conv</title>
<path fill="none" stroke="#000000" d="M153.2856,-568.2717C179.5921,-550.3312 210.6147,-529.1745 240.7925,-508.5938"/>
<polygon fill="#000000" stroke="#000000" points="242.9875,-511.3334 249.2771,-502.8075 239.0434,-505.5502 242.9875,-511.3334"/>
</g>
<!-- flatten -->
<g id="node5" class="node">
<title>flatten</title>
<path fill="#ffe1ff" stroke="#000000" d="M291,-129.5C291,-129.5 446,-129.5 446,-129.5 452,-129.5 458,-135.5 458,-141.5 458,-141.5 458,-262.5 458,-262.5 458,-268.5 452,-274.5 446,-274.5 446,-274.5 291,-274.5 291,-274.5 285,-274.5 279,-268.5 279,-262.5 279,-262.5 279,-141.5 279,-141.5 279,-135.5 285,-129.5 291,-129.5"/>
<text text-anchor="middle" x="368.5" y="-259.3" font-family="Times,serif" font-size="14.00" fill="#000000">name=%flatten</text>
<polyline fill="none" stroke="#000000" points="279,-251.5 458,-251.5 "/>
<text text-anchor="middle" x="368.5" y="-236.3" font-family="Times,serif" font-size="14.00" fill="#000000">op_code=call_function</text>
<polyline fill="none" stroke="#000000" points="279,-228.5 458,-228.5 "/>
<text text-anchor="middle" x="368.5" y="-213.3" font-family="Times,serif" font-size="14.00" fill="#000000">target=torch.flatten</text>
<polyline fill="none" stroke="#000000" points="279,-205.5 458,-205.5 "/>
<text text-anchor="start" x="287" y="-190.3" font-family="Times,serif" font-size="14.00" fill="#000000">args=(</text>
<text text-anchor="middle" x="368.5" y="-175.3" font-family="Times,serif" font-size="14.00" fill="#000000">1,</text>
<text text-anchor="start" x="287" y="-160.3" font-family="Times,serif" font-size="14.00" fill="#000000">)</text>
<polyline fill="none" stroke="#000000" points="279,-152.5 458,-152.5 "/>
<text text-anchor="middle" x="368.5" y="-137.3" font-family="Times,serif" font-size="14.00" fill="#000000">num_users=1</text>
</g>
<!-- conv&#45;&gt;flatten -->
<g id="edge4" class="edge">
<title>conv&#45;&gt;flatten</title>
<path fill="none" stroke="#000000" d="M368.5,-311.4285C368.5,-302.4331 368.5,-293.4407 368.5,-284.6928"/>
<polygon fill="#000000" stroke="#000000" points="372.0001,-284.5504 368.5,-274.5504 365.0001,-284.5505 372.0001,-284.5504"/>
</g>
<!-- conv.weight -->
<g id="node3" class="node">
<title>conv.weight</title>
<path fill="#fa8072" stroke="#000000" d="M201,-591.5C201,-591.5 536,-591.5 536,-591.5 542,-591.5 548,-597.5 548,-603.5 548,-603.5 548,-625.5 548,-625.5 548,-631.5 542,-637.5 536,-637.5 536,-637.5 201,-637.5 201,-637.5 195,-637.5 189,-631.5 189,-625.5 189,-625.5 189,-603.5 189,-603.5 189,-597.5 195,-591.5 201,-591.5"/>
<text text-anchor="middle" x="368.5" y="-622.3" font-family="Times,serif" font-size="14.00" fill="#000000">conv.weight</text>
<polyline fill="none" stroke="#000000" points="189,-614.5 548,-614.5 "/>
<text text-anchor="middle" x="368.5" y="-599.3" font-family="Times,serif" font-size="14.00" fill="#000000">op_code=get_parametertorch.float32[6, 1, 5, 5]</text>
</g>
<!-- conv.weight&#45;&gt;conv -->
<g id="edge1" class="edge">
<title>conv.weight&#45;&gt;conv</title>
<path fill="none" stroke="#000000" d="M368.5,-591.2197C368.5,-578.1321 368.5,-560.6856 368.5,-541.9537"/>
<polygon fill="#000000" stroke="#000000" points="372.0001,-541.7472 368.5,-531.7473 365.0001,-541.7473 372.0001,-541.7472"/>
</g>
<!-- conv.bias -->
<g id="node4" class="node">
<title>conv.bias</title>
<path fill="#fa8072" stroke="#000000" d="M578,-591.5C578,-591.5 859,-591.5 859,-591.5 865,-591.5 871,-597.5 871,-603.5 871,-603.5 871,-625.5 871,-625.5 871,-631.5 865,-637.5 859,-637.5 859,-637.5 578,-637.5 578,-637.5 572,-637.5 566,-631.5 566,-625.5 566,-625.5 566,-603.5 566,-603.5 566,-597.5 572,-591.5 578,-591.5"/>
<text text-anchor="middle" x="718.5" y="-622.3" font-family="Times,serif" font-size="14.00" fill="#000000">conv.bias</text>
<polyline fill="none" stroke="#000000" points="566,-614.5 871,-614.5 "/>
<text text-anchor="middle" x="718.5" y="-599.3" font-family="Times,serif" font-size="14.00" fill="#000000">op_code=get_parametertorch.float32[6]</text>
</g>
<!-- conv.bias&#45;&gt;conv -->
<g id="edge2" class="edge">
<title>conv.bias&#45;&gt;conv</title>
<path fill="none" stroke="#000000" d="M676.6295,-591.4114C632.2655,-566.9478 560.0056,-527.1017 496.6096,-492.1433"/>
<polygon fill="#000000" stroke="#000000" points="498.1737,-489.009 487.7268,-487.245 494.7936,-495.1388 498.1737,-489.009"/>
</g>
<!-- output -->
<g id="node6" class="node">
<title>output</title>
<path fill="#b0e0e6" stroke="#000000" d="M313.5,-.5C313.5,-.5 423.5,-.5 423.5,-.5 429.5,-.5 435.5,-6.5 435.5,-12.5 435.5,-12.5 435.5,-80.5 435.5,-80.5 435.5,-86.5 429.5,-92.5 423.5,-92.5 423.5,-92.5 313.5,-92.5 313.5,-92.5 307.5,-92.5 301.5,-86.5 301.5,-80.5 301.5,-80.5 301.5,-12.5 301.5,-12.5 301.5,-6.5 307.5,-.5 313.5,-.5"/>
<text text-anchor="middle" x="368.5" y="-77.3" font-family="Times,serif" font-size="14.00" fill="#000000">name=%output</text>
<polyline fill="none" stroke="#000000" points="301.5,-69.5 435.5,-69.5 "/>
<text text-anchor="middle" x="368.5" y="-54.3" font-family="Times,serif" font-size="14.00" fill="#000000">op_code=output</text>
<polyline fill="none" stroke="#000000" points="301.5,-46.5 435.5,-46.5 "/>
<text text-anchor="middle" x="368.5" y="-31.3" font-family="Times,serif" font-size="14.00" fill="#000000">target=output</text>
<polyline fill="none" stroke="#000000" points="301.5,-23.5 435.5,-23.5 "/>
<text text-anchor="middle" x="368.5" y="-8.3" font-family="Times,serif" font-size="14.00" fill="#000000">num_users=0</text>
</g>
<!-- flatten&#45;&gt;output -->
<g id="edge5" class="edge">
<title>flatten&#45;&gt;output</title>
<path fill="none" stroke="#000000" d="M368.5,-129.2581C368.5,-120.3793 368.5,-111.4129 368.5,-102.8249"/>
<polygon fill="#000000" stroke="#000000" points="372.0001,-102.5682 368.5,-92.5683 365.0001,-102.5683 372.0001,-102.5682"/>
</g>
</g>
</svg>
