<?xml version="1.0" encoding="UTF-8" standalone="no"?>
<!DOCTYPE svg PUBLIC "-//W3C//DTD SVG 1.1//EN"
 "http://www.w3.org/Graphics/SVG/1.1/DTD/svg11.dtd">
<!-- Generated by graphviz version 2.40.1 (20161225.0304)
 -->
<!-- Title: fn Pages: 1 -->
<svg width="952pt" height="2117pt"
 viewBox="0.00 0.00 951.50 2117.00" xmlns="http://www.w3.org/2000/svg" xmlns:xlink="http://www.w3.org/1999/xlink">
<g id="graph0" class="graph" transform="scale(1 1) rotate(0) translate(4 2113)">
<title>fn</title>
<polygon fill="#ffffff" stroke="transparent" points="-4,4 -4,-2113 947.5,-2113 947.5,4 -4,4"/>
<!-- primals_1 -->
<g id="node1" class="node">
<title>primals_1</title>
<path fill="#f0f8ff" stroke="#000000" d="M161.5,-1924.5C161.5,-1924.5 308.5,-1924.5 308.5,-1924.5 314.5,-1924.5 320.5,-1930.5 320.5,-1936.5 320.5,-1936.5 320.5,-2096.5 320.5,-2096.5 320.5,-2102.5 314.5,-2108.5 308.5,-2108.5 308.5,-2108.5 161.5,-2108.5 161.5,-2108.5 155.5,-2108.5 149.5,-2102.5 149.5,-2096.5 149.5,-2096.5 149.5,-1936.5 149.5,-1936.5 149.5,-1930.5 155.5,-1924.5 161.5,-1924.5"/>
<text text-anchor="middle" x="235" y="-2093.3" font-family="Times,serif" font-size="14.00" fill="#000000">name=%primals_1</text>
<polyline fill="none" stroke="#000000" points="149.5,-2085.5 320.5,-2085.5 "/>
<text text-anchor="middle" x="235" y="-2070.3" font-family="Times,serif" font-size="14.00" fill="#000000">op_code=placeholder</text>
<polyline fill="none" stroke="#000000" points="149.5,-2062.5 320.5,-2062.5 "/>
<text text-anchor="middle" x="235" y="-2047.3" font-family="Times,serif" font-size="14.00" fill="#000000">target=primals_1</text>
<polyline fill="none" stroke="#000000" points="149.5,-2039.5 320.5,-2039.5 "/>
<text text-anchor="middle" x="235" y="-2024.3" font-family="Times,serif" font-size="14.00" fill="#000000">num_users=2</text>
<polyline fill="none" stroke="#000000" points="149.5,-2016.5 320.5,-2016.5 "/>
<text text-anchor="middle" x="235" y="-2001.3" font-family="Times,serif" font-size="14.00" fill="#000000">dtype=torch.float32</text>
<polyline fill="none" stroke="#000000" points="149.5,-1993.5 320.5,-1993.5 "/>
<text text-anchor="middle" x="235" y="-1978.3" font-family="Times,serif" font-size="14.00" fill="#000000">shape=(6, 1, 5, 5)</text>
<polyline fill="none" stroke="#000000" points="149.5,-1970.5 320.5,-1970.5 "/>
<text text-anchor="middle" x="235" y="-1955.3" font-family="Times,serif" font-size="14.00" fill="#000000">requires_grad=True</text>
<polyline fill="none" stroke="#000000" points="149.5,-1947.5 320.5,-1947.5 "/>
<text text-anchor="middle" x="235" y="-1932.3" font-family="Times,serif" font-size="14.00" fill="#000000">stride=(25, 25, 5, 1)</text>
</g>
<!-- convolution -->
<g id="node6" class="node">
<title>convolution</title>
<path fill="#ffe1ff" stroke="#000000" d="M468.5,-1575.5C468.5,-1575.5 763.5,-1575.5 763.5,-1575.5 769.5,-1575.5 775.5,-1581.5 775.5,-1587.5 775.5,-1587.5 775.5,-1875.5 775.5,-1875.5 775.5,-1881.5 769.5,-1887.5 763.5,-1887.5 763.5,-1887.5 468.5,-1887.5 468.5,-1887.5 462.5,-1887.5 456.5,-1881.5 456.5,-1875.5 456.5,-1875.5 456.5,-1587.5 456.5,-1587.5 456.5,-1581.5 462.5,-1575.5 468.5,-1575.5"/>
<text text-anchor="middle" x="616" y="-1872.3" font-family="Times,serif" font-size="14.00" fill="#000000">name=%convolution</text>
<polyline fill="none" stroke="#000000" points="456.5,-1864.5 775.5,-1864.5 "/>
<text text-anchor="middle" x="616" y="-1849.3" font-family="Times,serif" font-size="14.00" fill="#000000">op_code=call_function</text>
<polyline fill="none" stroke="#000000" points="456.5,-1841.5 775.5,-1841.5 "/>
<text text-anchor="middle" x="616" y="-1826.3" font-family="Times,serif" font-size="14.00" fill="#000000">target=torch.ops.aten.convolution.default</text>
<polyline fill="none" stroke="#000000" points="456.5,-1818.5 775.5,-1818.5 "/>
<text text-anchor="start" x="464.5" y="-1803.3" font-family="Times,serif" font-size="14.00" fill="#000000">args=(</text>
<text text-anchor="middle" x="616" y="-1788.3" font-family="Times,serif" font-size="14.00" fill="#000000">[1, 1],</text>
<text text-anchor="middle" x="616" y="-1773.3" font-family="Times,serif" font-size="14.00" fill="#000000">[0, 0],</text>
<text text-anchor="middle" x="616" y="-1758.3" font-family="Times,serif" font-size="14.00" fill="#000000">[1, 1],</text>
<text text-anchor="middle" x="616" y="-1743.3" font-family="Times,serif" font-size="14.00" fill="#000000">False,</text>
<text text-anchor="middle" x="616" y="-1728.3" font-family="Times,serif" font-size="14.00" fill="#000000">[0, 0],</text>
<text text-anchor="middle" x="616" y="-1713.3" font-family="Times,serif" font-size="14.00" fill="#000000">1,</text>
<text text-anchor="start" x="464.5" y="-1698.3" font-family="Times,serif" font-size="14.00" fill="#000000">)</text>
<polyline fill="none" stroke="#000000" points="456.5,-1690.5 775.5,-1690.5 "/>
<text text-anchor="middle" x="616" y="-1675.3" font-family="Times,serif" font-size="14.00" fill="#000000">num_users=1</text>
<polyline fill="none" stroke="#000000" points="456.5,-1667.5 775.5,-1667.5 "/>
<text text-anchor="middle" x="616" y="-1652.3" font-family="Times,serif" font-size="14.00" fill="#000000">dtype=torch.float32</text>
<polyline fill="none" stroke="#000000" points="456.5,-1644.5 775.5,-1644.5 "/>
<text text-anchor="middle" x="616" y="-1629.3" font-family="Times,serif" font-size="14.00" fill="#000000">shape=(1, 6, 28, 28)</text>
<polyline fill="none" stroke="#000000" points="456.5,-1621.5 775.5,-1621.5 "/>
<text text-anchor="middle" x="616" y="-1606.3" font-family="Times,serif" font-size="14.00" fill="#000000">requires_grad=False</text>
<polyline fill="none" stroke="#000000" points="456.5,-1598.5 775.5,-1598.5 "/>
<text text-anchor="middle" x="616" y="-1583.3" font-family="Times,serif" font-size="14.00" fill="#000000">stride=(4704, 784, 28, 1)</text>
</g>
<!-- primals_1&#45;&gt;convolution -->
<g id="edge1" class="edge">
<title>primals_1&#45;&gt;convolution</title>
<path fill="none" stroke="#000000" d="M320.5038,-1952.5404C358.1978,-1924.3442 403.8675,-1890.1818 447.9161,-1857.2321"/>
<polygon fill="#000000" stroke="#000000" points="450.2087,-1859.8881 456.1198,-1851.0955 446.0157,-1854.2828 450.2087,-1859.8881"/>
</g>
<!-- output -->
<g id="node15" class="node">
<title>output</title>
<path fill="#b0e0e6" stroke="#000000" d="M508,-.5C508,-.5 618,-.5 618,-.5 624,-.5 630,-6.5 630,-12.5 630,-12.5 630,-80.5 630,-80.5 630,-86.5 624,-92.5 618,-92.5 618,-92.5 508,-92.5 508,-92.5 502,-92.5 496,-86.5 496,-80.5 496,-80.5 496,-12.5 496,-12.5 496,-6.5 502,-.5 508,-.5"/>
<text text-anchor="middle" x="563" y="-77.3" font-family="Times,serif" font-size="14.00" fill="#000000">name=%output</text>
<polyline fill="none" stroke="#000000" points="496,-69.5 630,-69.5 "/>
<text text-anchor="middle" x="563" y="-54.3" font-family="Times,serif" font-size="14.00" fill="#000000">op_code=output</text>
<polyline fill="none" stroke="#000000" points="496,-46.5 630,-46.5 "/>
<text text-anchor="middle" x="563" y="-31.3" font-family="Times,serif" font-size="14.00" fill="#000000">target=output</text>
<polyline fill="none" stroke="#000000" points="496,-23.5 630,-23.5 "/>
<text text-anchor="middle" x="563" y="-8.3" font-family="Times,serif" font-size="14.00" fill="#000000">num_users=0</text>
</g>
<!-- primals_1&#45;&gt;output -->
<g id="edge2" class="edge">
<title>primals_1&#45;&gt;output</title>
<path fill="none" stroke="#000000" d="M170.7852,-1924.4915C101.2061,-1815.6082 0,-1626.325 0,-1446.5 0,-1446.5 0,-1446.5 0,-469 0,-301.6125 30.2311,-232.2256 162,-129 211.4783,-90.2395 383.9845,-65.6589 485.9126,-54.1654"/>
<polygon fill="#000000" stroke="#000000" points="486.301,-57.6439 495.8532,-53.0608 485.5278,-50.6868 486.301,-57.6439"/>
</g>
<!-- primals_2 -->
<g id="node2" class="node">
<title>primals_2</title>
<path fill="#f0f8ff" stroke="#000000" d="M542.5,-1924.5C542.5,-1924.5 689.5,-1924.5 689.5,-1924.5 695.5,-1924.5 701.5,-1930.5 701.5,-1936.5 701.5,-1936.5 701.5,-2096.5 701.5,-2096.5 701.5,-2102.5 695.5,-2108.5 689.5,-2108.5 689.5,-2108.5 542.5,-2108.5 542.5,-2108.5 536.5,-2108.5 530.5,-2102.5 530.5,-2096.5 530.5,-2096.5 530.5,-1936.5 530.5,-1936.5 530.5,-1930.5 536.5,-1924.5 542.5,-1924.5"/>
<text text-anchor="middle" x="616" y="-2093.3" font-family="Times,serif" font-size="14.00" fill="#000000">name=%primals_2</text>
<polyline fill="none" stroke="#000000" points="530.5,-2085.5 701.5,-2085.5 "/>
<text text-anchor="middle" x="616" y="-2070.3" font-family="Times,serif" font-size="14.00" fill="#000000">op_code=placeholder</text>
<polyline fill="none" stroke="#000000" points="530.5,-2062.5 701.5,-2062.5 "/>
<text text-anchor="middle" x="616" y="-2047.3" font-family="Times,serif" font-size="14.00" fill="#000000">target=primals_2</text>
<polyline fill="none" stroke="#000000" points="530.5,-2039.5 701.5,-2039.5 "/>
<text text-anchor="middle" x="616" y="-2024.3" font-family="Times,serif" font-size="14.00" fill="#000000">num_users=1</text>
<polyline fill="none" stroke="#000000" points="530.5,-2016.5 701.5,-2016.5 "/>
<text text-anchor="middle" x="616" y="-2001.3" font-family="Times,serif" font-size="14.00" fill="#000000">dtype=torch.float32</text>
<polyline fill="none" stroke="#000000" points="530.5,-1993.5 701.5,-1993.5 "/>
<text text-anchor="middle" x="616" y="-1978.3" font-family="Times,serif" font-size="14.00" fill="#000000">shape=(6,)</text>
<polyline fill="none" stroke="#000000" points="530.5,-1970.5 701.5,-1970.5 "/>
<text text-anchor="middle" x="616" y="-1955.3" font-family="Times,serif" font-size="14.00" fill="#000000">requires_grad=True</text>
<polyline fill="none" stroke="#000000" points="530.5,-1947.5 701.5,-1947.5 "/>
<text text-anchor="middle" x="616" y="-1932.3" font-family="Times,serif" font-size="14.00" fill="#000000">stride=(1,)</text>
</g>
<!-- primals_2&#45;&gt;convolution -->
<g id="edge3" class="edge">
<title>primals_2&#45;&gt;convolution</title>
<path fill="none" stroke="#000000" d="M616,-1924.3622C616,-1915.7365 616,-1906.8282 616,-1897.7884"/>
<polygon fill="#000000" stroke="#000000" points="619.5001,-1897.5344 616,-1887.5345 612.5001,-1897.5345 619.5001,-1897.5344"/>
</g>
<!-- primals_3 -->
<g id="node3" class="node">
<title>primals_3</title>
<path fill="#f0f8ff" stroke="#000000" d="M550.5,-925C550.5,-925 697.5,-925 697.5,-925 703.5,-925 709.5,-931 709.5,-937 709.5,-937 709.5,-1097 709.5,-1097 709.5,-1103 703.5,-1109 697.5,-1109 697.5,-1109 550.5,-1109 550.5,-1109 544.5,-1109 538.5,-1103 538.5,-1097 538.5,-1097 538.5,-937 538.5,-937 538.5,-931 544.5,-925 550.5,-925"/>
<text text-anchor="middle" x="624" y="-1093.8" font-family="Times,serif" font-size="14.00" fill="#000000">name=%primals_3</text>
<polyline fill="none" stroke="#000000" points="538.5,-1086 709.5,-1086 "/>
<text text-anchor="middle" x="624" y="-1070.8" font-family="Times,serif" font-size="14.00" fill="#000000">op_code=placeholder</text>
<polyline fill="none" stroke="#000000" points="538.5,-1063 709.5,-1063 "/>
<text text-anchor="middle" x="624" y="-1047.8" font-family="Times,serif" font-size="14.00" fill="#000000">target=primals_3</text>
<polyline fill="none" stroke="#000000" points="538.5,-1040 709.5,-1040 "/>
<text text-anchor="middle" x="624" y="-1024.8" font-family="Times,serif" font-size="14.00" fill="#000000">num_users=1</text>
<polyline fill="none" stroke="#000000" points="538.5,-1017 709.5,-1017 "/>
<text text-anchor="middle" x="624" y="-1001.8" font-family="Times,serif" font-size="14.00" fill="#000000">dtype=torch.float32</text>
<polyline fill="none" stroke="#000000" points="538.5,-994 709.5,-994 "/>
<text text-anchor="middle" x="624" y="-978.8" font-family="Times,serif" font-size="14.00" fill="#000000">shape=(10, 1176)</text>
<polyline fill="none" stroke="#000000" points="538.5,-971 709.5,-971 "/>
<text text-anchor="middle" x="624" y="-955.8" font-family="Times,serif" font-size="14.00" fill="#000000">requires_grad=True</text>
<polyline fill="none" stroke="#000000" points="538.5,-948 709.5,-948 "/>
<text text-anchor="middle" x="624" y="-932.8" font-family="Times,serif" font-size="14.00" fill="#000000">stride=(1176, 1)</text>
</g>
<!-- t -->
<g id="node12" class="node">
<title>t</title>
<path fill="#caff70" stroke="#000000" d="M515,-651C515,-651 733,-651 733,-651 739,-651 745,-657 745,-663 745,-663 745,-823 745,-823 745,-829 739,-835 733,-835 733,-835 515,-835 515,-835 509,-835 503,-829 503,-823 503,-823 503,-663 503,-663 503,-657 509,-651 515,-651"/>
<text text-anchor="middle" x="624" y="-819.8" font-family="Times,serif" font-size="14.00" fill="#000000">name=%t</text>
<polyline fill="none" stroke="#000000" points="503,-812 745,-812 "/>
<text text-anchor="middle" x="624" y="-796.8" font-family="Times,serif" font-size="14.00" fill="#000000">op_code=call_function</text>
<polyline fill="none" stroke="#000000" points="503,-789 745,-789 "/>
<text text-anchor="middle" x="624" y="-773.8" font-family="Times,serif" font-size="14.00" fill="#000000">target=torch.ops.aten.t.default</text>
<polyline fill="none" stroke="#000000" points="503,-766 745,-766 "/>
<text text-anchor="middle" x="624" y="-750.8" font-family="Times,serif" font-size="14.00" fill="#000000">num_users=2</text>
<polyline fill="none" stroke="#000000" points="503,-743 745,-743 "/>
<text text-anchor="middle" x="624" y="-727.8" font-family="Times,serif" font-size="14.00" fill="#000000">dtype=torch.float32</text>
<polyline fill="none" stroke="#000000" points="503,-720 745,-720 "/>
<text text-anchor="middle" x="624" y="-704.8" font-family="Times,serif" font-size="14.00" fill="#000000">shape=(1176, 10)</text>
<polyline fill="none" stroke="#000000" points="503,-697 745,-697 "/>
<text text-anchor="middle" x="624" y="-681.8" font-family="Times,serif" font-size="14.00" fill="#000000">requires_grad=False</text>
<polyline fill="none" stroke="#000000" points="503,-674 745,-674 "/>
<text text-anchor="middle" x="624" y="-658.8" font-family="Times,serif" font-size="14.00" fill="#000000">stride=(1, 1176)</text>
</g>
<!-- primals_3&#45;&gt;t -->
<g id="edge4" class="edge">
<title>primals_3&#45;&gt;t</title>
<path fill="none" stroke="#000000" d="M624,-924.9997C624,-899.4713 624,-871.5978 624,-845.5091"/>
<polygon fill="#000000" stroke="#000000" points="627.5001,-845.2238 624,-835.2238 620.5001,-845.2239 627.5001,-845.2238"/>
</g>
<!-- primals_4 -->
<g id="node4" class="node">
<title>primals_4</title>
<path fill="#f0f8ff" stroke="#000000" d="M325.5,-651C325.5,-651 472.5,-651 472.5,-651 478.5,-651 484.5,-657 484.5,-663 484.5,-663 484.5,-823 484.5,-823 484.5,-829 478.5,-835 472.5,-835 472.5,-835 325.5,-835 325.5,-835 319.5,-835 313.5,-829 313.5,-823 313.5,-823 313.5,-663 313.5,-663 313.5,-657 319.5,-651 325.5,-651"/>
<text text-anchor="middle" x="399" y="-819.8" font-family="Times,serif" font-size="14.00" fill="#000000">name=%primals_4</text>
<polyline fill="none" stroke="#000000" points="313.5,-812 484.5,-812 "/>
<text text-anchor="middle" x="399" y="-796.8" font-family="Times,serif" font-size="14.00" fill="#000000">op_code=placeholder</text>
<polyline fill="none" stroke="#000000" points="313.5,-789 484.5,-789 "/>
<text text-anchor="middle" x="399" y="-773.8" font-family="Times,serif" font-size="14.00" fill="#000000">target=primals_4</text>
<polyline fill="none" stroke="#000000" points="313.5,-766 484.5,-766 "/>
<text text-anchor="middle" x="399" y="-750.8" font-family="Times,serif" font-size="14.00" fill="#000000">num_users=1</text>
<polyline fill="none" stroke="#000000" points="313.5,-743 484.5,-743 "/>
<text text-anchor="middle" x="399" y="-727.8" font-family="Times,serif" font-size="14.00" fill="#000000">dtype=torch.float32</text>
<polyline fill="none" stroke="#000000" points="313.5,-720 484.5,-720 "/>
<text text-anchor="middle" x="399" y="-704.8" font-family="Times,serif" font-size="14.00" fill="#000000">shape=(10,)</text>
<polyline fill="none" stroke="#000000" points="313.5,-697 484.5,-697 "/>
<text text-anchor="middle" x="399" y="-681.8" font-family="Times,serif" font-size="14.00" fill="#000000">requires_grad=True</text>
<polyline fill="none" stroke="#000000" points="313.5,-674 484.5,-674 "/>
<text text-anchor="middle" x="399" y="-658.8" font-family="Times,serif" font-size="14.00" fill="#000000">stride=(1,)</text>
</g>
<!-- addmm -->
<g id="node13" class="node">
<title>addmm</title>
<path fill="#ffe1ff" stroke="#000000" d="M258.5,-377C258.5,-377 523.5,-377 523.5,-377 529.5,-377 535.5,-383 535.5,-389 535.5,-389 535.5,-549 535.5,-549 535.5,-555 529.5,-561 523.5,-561 523.5,-561 258.5,-561 258.5,-561 252.5,-561 246.5,-555 246.5,-549 246.5,-549 246.5,-389 246.5,-389 246.5,-383 252.5,-377 258.5,-377"/>
<text text-anchor="middle" x="391" y="-545.8" font-family="Times,serif" font-size="14.00" fill="#000000">name=%addmm</text>
<polyline fill="none" stroke="#000000" points="246.5,-538 535.5,-538 "/>
<text text-anchor="middle" x="391" y="-522.8" font-family="Times,serif" font-size="14.00" fill="#000000">op_code=call_function</text>
<polyline fill="none" stroke="#000000" points="246.5,-515 535.5,-515 "/>
<text text-anchor="middle" x="391" y="-499.8" font-family="Times,serif" font-size="14.00" fill="#000000">target=torch.ops.aten.addmm.default</text>
<polyline fill="none" stroke="#000000" points="246.5,-492 535.5,-492 "/>
<text text-anchor="middle" x="391" y="-476.8" font-family="Times,serif" font-size="14.00" fill="#000000">num_users=1</text>
<polyline fill="none" stroke="#000000" points="246.5,-469 535.5,-469 "/>
<text text-anchor="middle" x="391" y="-453.8" font-family="Times,serif" font-size="14.00" fill="#000000">dtype=torch.float32</text>
<polyline fill="none" stroke="#000000" points="246.5,-446 535.5,-446 "/>
<text text-anchor="middle" x="391" y="-430.8" font-family="Times,serif" font-size="14.00" fill="#000000">shape=(1, 10)</text>
<polyline fill="none" stroke="#000000" points="246.5,-423 535.5,-423 "/>
<text text-anchor="middle" x="391" y="-407.8" font-family="Times,serif" font-size="14.00" fill="#000000">requires_grad=False</text>
<polyline fill="none" stroke="#000000" points="246.5,-400 535.5,-400 "/>
<text text-anchor="middle" x="391" y="-384.8" font-family="Times,serif" font-size="14.00" fill="#000000">stride=(10, 1)</text>
</g>
<!-- primals_4&#45;&gt;addmm -->
<g id="edge5" class="edge">
<title>primals_4&#45;&gt;addmm</title>
<path fill="none" stroke="#000000" d="M396.3139,-650.9997C395.5685,-625.4713 394.7547,-597.5978 393.993,-571.5091"/>
<polygon fill="#000000" stroke="#000000" points="397.4831,-571.1174 393.6927,-561.2238 390.4861,-571.3218 397.4831,-571.1174"/>
</g>
<!-- primals_5 -->
<g id="node5" class="node">
<title>primals_5</title>
<path fill="#f0f8ff" stroke="#000000" d="M748.5,-1924.5C748.5,-1924.5 931.5,-1924.5 931.5,-1924.5 937.5,-1924.5 943.5,-1930.5 943.5,-1936.5 943.5,-1936.5 943.5,-2096.5 943.5,-2096.5 943.5,-2102.5 937.5,-2108.5 931.5,-2108.5 931.5,-2108.5 748.5,-2108.5 748.5,-2108.5 742.5,-2108.5 736.5,-2102.5 736.5,-2096.5 736.5,-2096.5 736.5,-1936.5 736.5,-1936.5 736.5,-1930.5 742.5,-1924.5 748.5,-1924.5"/>
<text text-anchor="middle" x="840" y="-2093.3" font-family="Times,serif" font-size="14.00" fill="#000000">name=%primals_5</text>
<polyline fill="none" stroke="#000000" points="736.5,-2085.5 943.5,-2085.5 "/>
<text text-anchor="middle" x="840" y="-2070.3" font-family="Times,serif" font-size="14.00" fill="#000000">op_code=placeholder</text>
<polyline fill="none" stroke="#000000" points="736.5,-2062.5 943.5,-2062.5 "/>
<text text-anchor="middle" x="840" y="-2047.3" font-family="Times,serif" font-size="14.00" fill="#000000">target=primals_5</text>
<polyline fill="none" stroke="#000000" points="736.5,-2039.5 943.5,-2039.5 "/>
<text text-anchor="middle" x="840" y="-2024.3" font-family="Times,serif" font-size="14.00" fill="#000000">num_users=2</text>
<polyline fill="none" stroke="#000000" points="736.5,-2016.5 943.5,-2016.5 "/>
<text text-anchor="middle" x="840" y="-2001.3" font-family="Times,serif" font-size="14.00" fill="#000000">dtype=torch.float32</text>
<polyline fill="none" stroke="#000000" points="736.5,-1993.5 943.5,-1993.5 "/>
<text text-anchor="middle" x="840" y="-1978.3" font-family="Times,serif" font-size="14.00" fill="#000000">shape=(1, 1, 32, 32)</text>
<polyline fill="none" stroke="#000000" points="736.5,-1970.5 943.5,-1970.5 "/>
<text text-anchor="middle" x="840" y="-1955.3" font-family="Times,serif" font-size="14.00" fill="#000000">requires_grad=False</text>
<polyline fill="none" stroke="#000000" points="736.5,-1947.5 943.5,-1947.5 "/>
<text text-anchor="middle" x="840" y="-1932.3" font-family="Times,serif" font-size="14.00" fill="#000000">stride=(1024, 1024, 32, 1)</text>
</g>
<!-- primals_5&#45;&gt;convolution -->
<g id="edge6" class="edge">
<title>primals_5&#45;&gt;convolution</title>
<path fill="none" stroke="#000000" d="M767.583,-1924.3622C760.2202,-1914.9945 752.5956,-1905.2935 744.8611,-1895.4528"/>
<polygon fill="#000000" stroke="#000000" points="747.5689,-1893.2339 738.6376,-1887.5345 742.0653,-1897.5595 747.5689,-1893.2339"/>
</g>
<!-- primals_5&#45;&gt;output -->
<g id="edge7" class="edge">
<title>primals_5&#45;&gt;output</title>
<path fill="none" stroke="#000000" d="M844.4443,-1924.2176C849.4813,-1811.5142 857,-1615.0515 857,-1446.5 857,-1446.5 857,-1446.5 857,-469 857,-306.2484 835.3816,-244.7797 721,-129 698.2368,-105.9586 667.6753,-87.9674 639.4975,-74.7485"/>
<polygon fill="#000000" stroke="#000000" points="640.5993,-71.4045 630.0477,-70.4481 637.6998,-77.7758 640.5993,-71.4045"/>
</g>
<!-- relu -->
<g id="node7" class="node">
<title>relu</title>
<path fill="#cdb5cd" stroke="#000000" d="M496,-1354.5C496,-1354.5 736,-1354.5 736,-1354.5 742,-1354.5 748,-1360.5 748,-1366.5 748,-1366.5 748,-1526.5 748,-1526.5 748,-1532.5 742,-1538.5 736,-1538.5 736,-1538.5 496,-1538.5 496,-1538.5 490,-1538.5 484,-1532.5 484,-1526.5 484,-1526.5 484,-1366.5 484,-1366.5 484,-1360.5 490,-1354.5 496,-1354.5"/>
<text text-anchor="middle" x="616" y="-1523.3" font-family="Times,serif" font-size="14.00" fill="#000000">name=%relu</text>
<polyline fill="none" stroke="#000000" points="484,-1515.5 748,-1515.5 "/>
<text text-anchor="middle" x="616" y="-1500.3" font-family="Times,serif" font-size="14.00" fill="#000000">op_code=call_function</text>
<polyline fill="none" stroke="#000000" points="484,-1492.5 748,-1492.5 "/>
<text text-anchor="middle" x="616" y="-1477.3" font-family="Times,serif" font-size="14.00" fill="#000000">target=torch.ops.aten.relu.default</text>
<polyline fill="none" stroke="#000000" points="484,-1469.5 748,-1469.5 "/>
<text text-anchor="middle" x="616" y="-1454.3" font-family="Times,serif" font-size="14.00" fill="#000000">num_users=2</text>
<polyline fill="none" stroke="#000000" points="484,-1446.5 748,-1446.5 "/>
<text text-anchor="middle" x="616" y="-1431.3" font-family="Times,serif" font-size="14.00" fill="#000000">dtype=torch.float32</text>
<polyline fill="none" stroke="#000000" points="484,-1423.5 748,-1423.5 "/>
<text text-anchor="middle" x="616" y="-1408.3" font-family="Times,serif" font-size="14.00" fill="#000000">shape=(1, 6, 28, 28)</text>
<polyline fill="none" stroke="#000000" points="484,-1400.5 748,-1400.5 "/>
<text text-anchor="middle" x="616" y="-1385.3" font-family="Times,serif" font-size="14.00" fill="#000000">requires_grad=False</text>
<polyline fill="none" stroke="#000000" points="484,-1377.5 748,-1377.5 "/>
<text text-anchor="middle" x="616" y="-1362.3" font-family="Times,serif" font-size="14.00" fill="#000000">stride=(4704, 784, 28, 1)</text>
</g>
<!-- convolution&#45;&gt;relu -->
<g id="edge8" class="edge">
<title>convolution&#45;&gt;relu</title>
<path fill="none" stroke="#000000" d="M616,-1575.2422C616,-1566.2964 616,-1557.4235 616,-1548.7665"/>
<polygon fill="#000000" stroke="#000000" points="619.5001,-1548.7115 616,-1538.7115 612.5001,-1548.7116 619.5001,-1548.7115"/>
</g>
<!-- max_pool2d_with_indices -->
<g id="node8" class="node">
<title>max_pool2d_with_indices</title>
<path fill="#caff70" stroke="#000000" d="M384.5,-1172.5C384.5,-1172.5 779.5,-1172.5 779.5,-1172.5 785.5,-1172.5 791.5,-1178.5 791.5,-1184.5 791.5,-1184.5 791.5,-1305.5 791.5,-1305.5 791.5,-1311.5 785.5,-1317.5 779.5,-1317.5 779.5,-1317.5 384.5,-1317.5 384.5,-1317.5 378.5,-1317.5 372.5,-1311.5 372.5,-1305.5 372.5,-1305.5 372.5,-1184.5 372.5,-1184.5 372.5,-1178.5 378.5,-1172.5 384.5,-1172.5"/>
<text text-anchor="middle" x="582" y="-1302.3" font-family="Times,serif" font-size="14.00" fill="#000000">name=%max_pool2d_with_indices</text>
<polyline fill="none" stroke="#000000" points="372.5,-1294.5 791.5,-1294.5 "/>
<text text-anchor="middle" x="582" y="-1279.3" font-family="Times,serif" font-size="14.00" fill="#000000">op_code=call_function</text>
<polyline fill="none" stroke="#000000" points="372.5,-1271.5 791.5,-1271.5 "/>
<text text-anchor="middle" x="582" y="-1256.3" font-family="Times,serif" font-size="14.00" fill="#000000">target=torch.ops.aten.max_pool2d_with_indices.default</text>
<polyline fill="none" stroke="#000000" points="372.5,-1248.5 791.5,-1248.5 "/>
<text text-anchor="start" x="380.5" y="-1233.3" font-family="Times,serif" font-size="14.00" fill="#000000">args=(</text>
<text text-anchor="middle" x="582" y="-1218.3" font-family="Times,serif" font-size="14.00" fill="#000000">[2, 2],</text>
<text text-anchor="start" x="380.5" y="-1203.3" font-family="Times,serif" font-size="14.00" fill="#000000">)</text>
<polyline fill="none" stroke="#000000" points="372.5,-1195.5 791.5,-1195.5 "/>
<text text-anchor="middle" x="582" y="-1180.3" font-family="Times,serif" font-size="14.00" fill="#000000">num_users=2</text>
</g>
<!-- relu&#45;&gt;max_pool2d_with_indices -->
<g id="edge9" class="edge">
<title>relu&#45;&gt;max_pool2d_with_indices</title>
<path fill="none" stroke="#000000" d="M600.4428,-1354.3007C598.931,-1345.3409 597.4038,-1336.2903 595.9096,-1327.435"/>
<polygon fill="#000000" stroke="#000000" points="599.3543,-1326.8136 594.2392,-1317.5354 592.4519,-1327.9784 599.3543,-1326.8136"/>
</g>
<!-- relu&#45;&gt;output -->
<g id="edge10" class="edge">
<title>relu&#45;&gt;output</title>
<path fill="none" stroke="#000000" d="M748.3315,-1376.6369C768.7873,-1360.1098 787.3035,-1340.5867 800,-1318 865.683,-1201.1516 819,-1151.044 819,-1017 819,-1017 819,-1017 819,-469 819,-296.3266 738.3763,-264.2273 631,-129 623.6058,-119.6879 615.654,-109.87 607.8867,-100.3827"/>
<polygon fill="#000000" stroke="#000000" points="610.4728,-98.0169 601.4219,-92.5095 605.0629,-102.4591 610.4728,-98.0169"/>
</g>
<!-- getitem -->
<g id="node9" class="node">
<title>getitem</title>
<path fill="#fff0f5" stroke="#000000" d="M203,-898.5C203,-898.5 379,-898.5 379,-898.5 385,-898.5 391,-904.5 391,-910.5 391,-910.5 391,-1123.5 391,-1123.5 391,-1129.5 385,-1135.5 379,-1135.5 379,-1135.5 203,-1135.5 203,-1135.5 197,-1135.5 191,-1129.5 191,-1123.5 191,-1123.5 191,-910.5 191,-910.5 191,-904.5 197,-898.5 203,-898.5"/>
<text text-anchor="middle" x="291" y="-1120.3" font-family="Times,serif" font-size="14.00" fill="#000000">name=%getitem</text>
<polyline fill="none" stroke="#000000" points="191,-1112.5 391,-1112.5 "/>
<text text-anchor="middle" x="291" y="-1097.3" font-family="Times,serif" font-size="14.00" fill="#000000">op_code=call_function</text>
<polyline fill="none" stroke="#000000" points="191,-1089.5 391,-1089.5 "/>
<text text-anchor="middle" x="291" y="-1074.3" font-family="Times,serif" font-size="14.00" fill="#000000">target=_operator.getitem</text>
<polyline fill="none" stroke="#000000" points="191,-1066.5 391,-1066.5 "/>
<text text-anchor="start" x="199" y="-1051.3" font-family="Times,serif" font-size="14.00" fill="#000000">args=(</text>
<text text-anchor="middle" x="291" y="-1036.3" font-family="Times,serif" font-size="14.00" fill="#000000">0,</text>
<text text-anchor="start" x="199" y="-1021.3" font-family="Times,serif" font-size="14.00" fill="#000000">)</text>
<polyline fill="none" stroke="#000000" points="191,-1013.5 391,-1013.5 "/>
<text text-anchor="middle" x="291" y="-998.3" font-family="Times,serif" font-size="14.00" fill="#000000">num_users=1</text>
<polyline fill="none" stroke="#000000" points="191,-990.5 391,-990.5 "/>
<text text-anchor="middle" x="291" y="-975.3" font-family="Times,serif" font-size="14.00" fill="#000000">dtype=torch.float32</text>
<polyline fill="none" stroke="#000000" points="191,-967.5 391,-967.5 "/>
<text text-anchor="middle" x="291" y="-952.3" font-family="Times,serif" font-size="14.00" fill="#000000">shape=(1, 6, 14, 14)</text>
<polyline fill="none" stroke="#000000" points="191,-944.5 391,-944.5 "/>
<text text-anchor="middle" x="291" y="-929.3" font-family="Times,serif" font-size="14.00" fill="#000000">requires_grad=False</text>
<polyline fill="none" stroke="#000000" points="191,-921.5 391,-921.5 "/>
<text text-anchor="middle" x="291" y="-906.3" font-family="Times,serif" font-size="14.00" fill="#000000">stride=(1176, 196, 14, 1)</text>
</g>
<!-- max_pool2d_with_indices&#45;&gt;getitem -->
<g id="edge11" class="edge">
<title>max_pool2d_with_indices&#45;&gt;getitem</title>
<path fill="none" stroke="#000000" d="M489.1257,-1172.2325C460.42,-1149.7415 428.556,-1124.7758 398.9241,-1101.5591"/>
<polygon fill="#000000" stroke="#000000" points="401.0678,-1098.7923 391.0375,-1095.3799 396.7505,-1104.3025 401.0678,-1098.7923"/>
</g>
<!-- getitem_1 -->
<g id="node10" class="node">
<title>getitem_1</title>
<path fill="#fff0f5" stroke="#000000" d="M603,-350.5C603,-350.5 779,-350.5 779,-350.5 785,-350.5 791,-356.5 791,-362.5 791,-362.5 791,-575.5 791,-575.5 791,-581.5 785,-587.5 779,-587.5 779,-587.5 603,-587.5 603,-587.5 597,-587.5 591,-581.5 591,-575.5 591,-575.5 591,-362.5 591,-362.5 591,-356.5 597,-350.5 603,-350.5"/>
<text text-anchor="middle" x="691" y="-572.3" font-family="Times,serif" font-size="14.00" fill="#000000">name=%getitem_1</text>
<polyline fill="none" stroke="#000000" points="591,-564.5 791,-564.5 "/>
<text text-anchor="middle" x="691" y="-549.3" font-family="Times,serif" font-size="14.00" fill="#000000">op_code=call_function</text>
<polyline fill="none" stroke="#000000" points="591,-541.5 791,-541.5 "/>
<text text-anchor="middle" x="691" y="-526.3" font-family="Times,serif" font-size="14.00" fill="#000000">target=_operator.getitem</text>
<polyline fill="none" stroke="#000000" points="591,-518.5 791,-518.5 "/>
<text text-anchor="start" x="599" y="-503.3" font-family="Times,serif" font-size="14.00" fill="#000000">args=(</text>
<text text-anchor="middle" x="691" y="-488.3" font-family="Times,serif" font-size="14.00" fill="#000000">1,</text>
<text text-anchor="start" x="599" y="-473.3" font-family="Times,serif" font-size="14.00" fill="#000000">)</text>
<polyline fill="none" stroke="#000000" points="591,-465.5 791,-465.5 "/>
<text text-anchor="middle" x="691" y="-450.3" font-family="Times,serif" font-size="14.00" fill="#000000">num_users=1</text>
<polyline fill="none" stroke="#000000" points="591,-442.5 791,-442.5 "/>
<text text-anchor="middle" x="691" y="-427.3" font-family="Times,serif" font-size="14.00" fill="#000000">dtype=torch.int64</text>
<polyline fill="none" stroke="#000000" points="591,-419.5 791,-419.5 "/>
<text text-anchor="middle" x="691" y="-404.3" font-family="Times,serif" font-size="14.00" fill="#000000">shape=(1, 6, 14, 14)</text>
<polyline fill="none" stroke="#000000" points="591,-396.5 791,-396.5 "/>
<text text-anchor="middle" x="691" y="-381.3" font-family="Times,serif" font-size="14.00" fill="#000000">requires_grad=False</text>
<polyline fill="none" stroke="#000000" points="591,-373.5 791,-373.5 "/>
<text text-anchor="middle" x="691" y="-358.3" font-family="Times,serif" font-size="14.00" fill="#000000">stride=(1176, 196, 14, 1)</text>
</g>
<!-- max_pool2d_with_indices&#45;&gt;getitem_1 -->
<g id="edge12" class="edge">
<title>max_pool2d_with_indices&#45;&gt;getitem_1</title>
<path fill="none" stroke="#000000" d="M691.2034,-1172.2394C701.9676,-1161.2243 711.6174,-1149.1093 719,-1136 830.9216,-937.2613 797.7542,-847.8506 754,-624 752.2813,-615.207 750.0622,-606.2829 747.4883,-597.3867"/>
<polygon fill="#000000" stroke="#000000" points="750.8174,-596.3038 744.563,-587.752 744.1193,-598.3376 750.8174,-596.3038"/>
</g>
<!-- view -->
<g id="node11" class="node">
<title>view</title>
<path fill="#ffe7ba" stroke="#000000" d="M40.5,-624.5C40.5,-624.5 283.5,-624.5 283.5,-624.5 289.5,-624.5 295.5,-630.5 295.5,-636.5 295.5,-636.5 295.5,-849.5 295.5,-849.5 295.5,-855.5 289.5,-861.5 283.5,-861.5 283.5,-861.5 40.5,-861.5 40.5,-861.5 34.5,-861.5 28.5,-855.5 28.5,-849.5 28.5,-849.5 28.5,-636.5 28.5,-636.5 28.5,-630.5 34.5,-624.5 40.5,-624.5"/>
<text text-anchor="middle" x="162" y="-846.3" font-family="Times,serif" font-size="14.00" fill="#000000">name=%view</text>
<polyline fill="none" stroke="#000000" points="28.5,-838.5 295.5,-838.5 "/>
<text text-anchor="middle" x="162" y="-823.3" font-family="Times,serif" font-size="14.00" fill="#000000">op_code=call_function</text>
<polyline fill="none" stroke="#000000" points="28.5,-815.5 295.5,-815.5 "/>
<text text-anchor="middle" x="162" y="-800.3" font-family="Times,serif" font-size="14.00" fill="#000000">target=torch.ops.aten.view.default</text>
<polyline fill="none" stroke="#000000" points="28.5,-792.5 295.5,-792.5 "/>
<text text-anchor="start" x="36.5" y="-777.3" font-family="Times,serif" font-size="14.00" fill="#000000">args=(</text>
<text text-anchor="middle" x="162" y="-762.3" font-family="Times,serif" font-size="14.00" fill="#000000">[1, 1176],</text>
<text text-anchor="start" x="36.5" y="-747.3" font-family="Times,serif" font-size="14.00" fill="#000000">)</text>
<polyline fill="none" stroke="#000000" points="28.5,-739.5 295.5,-739.5 "/>
<text text-anchor="middle" x="162" y="-724.3" font-family="Times,serif" font-size="14.00" fill="#000000">num_users=2</text>
<polyline fill="none" stroke="#000000" points="28.5,-716.5 295.5,-716.5 "/>
<text text-anchor="middle" x="162" y="-701.3" font-family="Times,serif" font-size="14.00" fill="#000000">dtype=torch.float32</text>
<polyline fill="none" stroke="#000000" points="28.5,-693.5 295.5,-693.5 "/>
<text text-anchor="middle" x="162" y="-678.3" font-family="Times,serif" font-size="14.00" fill="#000000">shape=(1, 1176)</text>
<polyline fill="none" stroke="#000000" points="28.5,-670.5 295.5,-670.5 "/>
<text text-anchor="middle" x="162" y="-655.3" font-family="Times,serif" font-size="14.00" fill="#000000">requires_grad=False</text>
<polyline fill="none" stroke="#000000" points="28.5,-647.5 295.5,-647.5 "/>
<text text-anchor="middle" x="162" y="-632.3" font-family="Times,serif" font-size="14.00" fill="#000000">stride=(1176, 1)</text>
</g>
<!-- getitem&#45;&gt;view -->
<g id="edge13" class="edge">
<title>getitem&#45;&gt;view</title>
<path fill="none" stroke="#000000" d="M235.169,-898.4132C230.8791,-889.3014 226.5371,-880.0789 222.2208,-870.9109"/>
<polygon fill="#000000" stroke="#000000" points="225.3422,-869.3238 217.9159,-861.7672 219.009,-872.3055 225.3422,-869.3238"/>
</g>
<!-- getitem_1&#45;&gt;output -->
<g id="edge14" class="edge">
<title>getitem_1&#45;&gt;output</title>
<path fill="none" stroke="#000000" d="M655.0895,-350.4672C630.4858,-269.2557 598.9727,-165.2379 579.9186,-102.3447"/>
<polygon fill="#000000" stroke="#000000" points="583.2197,-101.1692 576.9705,-92.6136 576.5204,-103.1989 583.2197,-101.1692"/>
</g>
<!-- view&#45;&gt;addmm -->
<g id="edge15" class="edge">
<title>view&#45;&gt;addmm</title>
<path fill="none" stroke="#000000" d="M261.1109,-624.4132C276.4152,-606.1014 292.0932,-587.3426 307.0241,-569.4777"/>
<polygon fill="#000000" stroke="#000000" points="310.1004,-571.2547 313.8277,-561.3372 304.7292,-566.7657 310.1004,-571.2547"/>
</g>
<!-- view&#45;&gt;output -->
<g id="edge16" class="edge">
<title>view&#45;&gt;output</title>
<path fill="none" stroke="#000000" d="M144.9641,-624.2949C132.4324,-487.5584 134.8113,-264.3938 256,-129 286.3566,-95.0852 405.0442,-70.6247 485.6339,-57.515"/>
<polygon fill="#000000" stroke="#000000" points="486.4341,-60.9315 495.7554,-55.8953 485.328,-54.0195 486.4341,-60.9315"/>
</g>
<!-- t&#45;&gt;addmm -->
<g id="edge17" class="edge">
<title>t&#45;&gt;addmm</title>
<path fill="none" stroke="#000000" d="M545.7662,-650.9997C523.3853,-624.6806 498.8849,-595.8689 476.1132,-569.0902"/>
<polygon fill="#000000" stroke="#000000" points="478.5684,-566.5745 469.4239,-561.2238 473.2357,-571.1092 478.5684,-566.5745"/>
</g>
<!-- t&#45;&gt;output -->
<g id="edge18" class="edge">
<title>t&#45;&gt;output</title>
<path fill="none" stroke="#000000" d="M595.2765,-650.7113C589.9537,-630.2491 585.1007,-608.5379 582,-588 555.5185,-412.5972 557.7412,-201.7791 560.7489,-102.8982"/>
<polygon fill="#000000" stroke="#000000" points="564.2495,-102.9338 561.0699,-92.8274 557.253,-102.7107 564.2495,-102.9338"/>
</g>
<!-- relu_1 -->
<g id="node14" class="node">
<title>relu_1</title>
<path fill="#cdb5cd" stroke="#000000" d="M277,-129.5C277,-129.5 517,-129.5 517,-129.5 523,-129.5 529,-135.5 529,-141.5 529,-141.5 529,-301.5 529,-301.5 529,-307.5 523,-313.5 517,-313.5 517,-313.5 277,-313.5 277,-313.5 271,-313.5 265,-307.5 265,-301.5 265,-301.5 265,-141.5 265,-141.5 265,-135.5 271,-129.5 277,-129.5"/>
<text text-anchor="middle" x="397" y="-298.3" font-family="Times,serif" font-size="14.00" fill="#000000">name=%relu_1</text>
<polyline fill="none" stroke="#000000" points="265,-290.5 529,-290.5 "/>
<text text-anchor="middle" x="397" y="-275.3" font-family="Times,serif" font-size="14.00" fill="#000000">op_code=call_function</text>
<polyline fill="none" stroke="#000000" points="265,-267.5 529,-267.5 "/>
<text text-anchor="middle" x="397" y="-252.3" font-family="Times,serif" font-size="14.00" fill="#000000">target=torch.ops.aten.relu.default</text>
<polyline fill="none" stroke="#000000" points="265,-244.5 529,-244.5 "/>
<text text-anchor="middle" x="397" y="-229.3" font-family="Times,serif" font-size="14.00" fill="#000000">num_users=1</text>
<polyline fill="none" stroke="#000000" points="265,-221.5 529,-221.5 "/>
<text text-anchor="middle" x="397" y="-206.3" font-family="Times,serif" font-size="14.00" fill="#000000">dtype=torch.float32</text>
<polyline fill="none" stroke="#000000" points="265,-198.5 529,-198.5 "/>
<text text-anchor="middle" x="397" y="-183.3" font-family="Times,serif" font-size="14.00" fill="#000000">shape=(1, 10)</text>
<polyline fill="none" stroke="#000000" points="265,-175.5 529,-175.5 "/>
<text text-anchor="middle" x="397" y="-160.3" font-family="Times,serif" font-size="14.00" fill="#000000">requires_grad=False</text>
<polyline fill="none" stroke="#000000" points="265,-152.5 529,-152.5 "/>
<text text-anchor="middle" x="397" y="-137.3" font-family="Times,serif" font-size="14.00" fill="#000000">stride=(10, 1)</text>
</g>
<!-- addmm&#45;&gt;relu_1 -->
<g id="edge19" class="edge">
<title>addmm&#45;&gt;relu_1</title>
<path fill="none" stroke="#000000" d="M393.2342,-376.8401C393.652,-359.6068 394.091,-341.4976 394.5158,-323.975"/>
<polygon fill="#000000" stroke="#000000" points="398.0205,-323.8188 394.764,-313.7368 391.0225,-323.649 398.0205,-323.8188"/>
</g>
<!-- relu_1&#45;&gt;output -->
<g id="edge20" class="edge">
<title>relu_1&#45;&gt;output</title>
<path fill="none" stroke="#000000" d="M484.3751,-129.3876C493.8665,-119.3817 503.2814,-109.4563 512.1215,-100.137"/>
<polygon fill="#000000" stroke="#000000" points="514.7356,-102.4669 519.0783,-92.803 509.6569,-97.6494 514.7356,-102.4669"/>
</g>
</g>
</svg>
